<?xml version="1.0" encoding="utf-8"?>
<!-- Generator: Adobe Illustrator 17.1.0, SVG Export Plug-In . SVG Version: 6.00 Build 0)  -->
<!DOCTYPE svg PUBLIC "-//W3C//DTD SVG 1.1//EN" "http://www.w3.org/Graphics/SVG/1.1/DTD/svg11.dtd">
<svg version="1.1" xmlns="http://www.w3.org/2000/svg" xmlns:xlink="http://www.w3.org/1999/xlink" x="0px" y="0px" width="18px"
	 height="18px" viewBox="0 0 18 18" enable-background="new 0 0 18 18" xml:space="preserve">
<g id="Header">
	<g>
		<rect x="-520" y="-1336" fill="none" width="1400" height="3600"/>
	</g>
</g>
<g id="Label">
</g>
<g id="Icon">
	<g>
		<g>
			<path d="M13,9H9v4h4V9z M12,0.5V2H6V0.5H4.5V2h-1C2.7,2,2,2.2,2,3l0,11.5C2,15.3,2.7,16,3.5,16h11c0.8,0,1.5-0.7,1.5-1.5v-11
				C16,2.7,15.3,2,14.5,2h-1V0.5H12z M14.5,14.5h-11v-9h11V14.5z"/>
		</g>
		<rect fill="none" width="18" height="18"/>
	</g>
</g>
<g id="Grid" display="none">
	<g display="inline">
		<line fill="none" stroke="#00E5FF" stroke-width="0.1" stroke-miterlimit="10" x1="0" y1="-1336" x2="0" y2="2216"/>
	</g>
</g>
</svg>
