<?xml version="1.0" encoding="utf-8"?>
<!DOCTYPE svg PUBLIC "-//W3C//DTD SVG 1.1//EN" "http://www.w3.org/Graphics/SVG/1.1/DTD/svg11.dtd">
<svg version="1.1" xmlns="http://www.w3.org/2000/svg" xmlns:xlink="http://www.w3.org/1999/xlink" viewBox="8 11 33 28">
<path fill="#333" d="M11.828,18.179c0,0-3.344,3.499-2.763,9.192 c0.581,5.694,4.186,10.392,16.208,10.392c12.021,0,15.045-6.275,15.116-11.436c0.071-5.159-2.253-7.46-3.344-8.243 c0,0,0.007-3.704-0.343-5.661c0,0-1.85-0.219-5.845,2.07c0,0-5.454-0.533-12.722,0.065c0,0-3.053-2.04-6.129-2.574 C12.006,11.984,11.496,15.196,11.828,18.179z"/>
<path fill="#E2B89F" d="M17.211,23.815h14.916c0,0,4.227-0.475,4.227,6.44 c0.034,6.086-11.139,5.693-11.139,5.693s-12.236,0.486-12.243-6.269C12.956,23.579,17.211,23.815,17.211,23.815z"/>
<g>
	<g>
		<path fill="#9C584F" d="M30.767,26.591c0.959,0,1.737,1.25,1.737,2.787 c0,1.54-0.778,2.788-1.737,2.788c-0.958,0-1.736-1.248-1.736-2.788C29.03,27.841,29.809,26.591,30.767,26.591z"/>
		<path fill="#FFFFFF" d="M30.767,32.666c-1.254,0-2.236-1.444-2.236-3.288c0-1.843,0.982-3.287,2.236-3.287 c1.255,0,2.237,1.444,2.237,3.287C33.004,31.222,32.021,32.666,30.767,32.666z M30.767,27.091c-0.585,0-1.236,0.939-1.236,2.287 c0,1.349,0.651,2.288,1.236,2.288s1.237-0.939,1.237-2.288C32.004,28.03,31.352,27.091,30.767,27.091z"/>
	</g>
</g>
<g>
	<g>
		<path fill="#9C584F" d="M18.767,26.591c0.959,0,1.737,1.25,1.737,2.787 c0,1.54-0.778,2.788-1.737,2.788c-0.958,0-1.736-1.248-1.736-2.788C17.03,27.841,17.809,26.591,18.767,26.591z"/>
		<path fill="#FFFFFF" d="M18.767,32.666c-1.254,0-2.236-1.444-2.236-3.288c0-1.843,0.982-3.287,2.236-3.287 c1.254,0,2.237,1.444,2.237,3.287C21.004,31.222,20.021,32.666,18.767,32.666z M18.767,27.091c-0.585,0-1.236,0.939-1.236,2.287 c0,1.349,0.651,2.288,1.236,2.288c0.585,0,1.237-0.939,1.237-2.288C20.004,28.03,19.352,27.091,18.767,27.091z"/>
	</g>
</g>
<path fill="#9C584F" d="M24.076,32.705c0,0,0.499-1.418,1.109-0.089 c0,0-0.457,0.297-0.285,0.996l1.428,0.546h-3.23l1.28-0.575C24.378,33.583,24.562,32.527,24.076,32.705z"/>
</svg>