<?xml version="1.0" encoding="UTF-8" standalone="no"?>
<svg width="24px" height="24px" viewBox="0 0 24 24" version="1.1" xmlns="http://www.w3.org/2000/svg" xmlns:xlink="http://www.w3.org/1999/xlink" xmlns:sketch="http://www.bohemiancoding.com/sketch/ns">
    <g id="Page-1" stroke="none" stroke-width="1" fill="none" fill-rule="evenodd" sketch:type="MSPage">
        <g id="Desktop-HD" sketch:type="MSArtboardGroup" fill="#000000">
            <g id="euro" sketch:type="MSLayerGroup" transform="translate(4.928571, 3.000000)">
                <path d="M13.3295171,13.848956 C12.7717614,14.1408877 11.5268981,14.5372503 10.3117026,14.5372503 C8.98732947,14.5372503 7.74127945,14.1408877 6.89515215,13.1855827 C6.49641614,12.7381914 6.20567113,12.1258468 6.0205437,11.3319349 L12.6685173,11.3319349 L12.6685173,9.45217947 L5.65147555,9.45217947 L5.65147555,9.02852246 C5.65147555,8.73659074 5.65147555,8.47432688 5.67639655,8.20731616 L12.669704,8.20731616 L12.669704,6.32756069 L6.07513256,6.32756069 C6.26263342,5.63926639 6.52371057,5.03048195 6.92363329,4.60682495 C7.74246616,3.62541221 8.91019304,3.17564749 10.1550564,3.17564749 C11.3168497,3.17564749 12.4311744,3.52098135 13.1194687,3.81172636 L13.8587917,0.793911872 C12.9046734,0.371441579 11.4770561,0 9.88685892,0 C7.3722113,0 5.25273954,1.00514702 3.77172009,2.7282562 C2.92559278,3.68118779 2.2634062,4.89994338 1.94418005,6.32874741 L0.168855444,6.32874741 L0.168855444,8.20731616 L1.65343504,8.20731616 C1.65343504,8.47432688 1.62614062,8.73777745 1.62614062,9.00241475 L1.62614062,9.45217947 L0.168855444,9.45217947 L0.168855444,11.3331216 L1.89196462,11.3331216 C2.1304942,12.7393781 2.65858206,13.8750637 3.37417079,14.7745931 C4.85875039,16.7338585 7.21319158,17.7935943 9.83345677,17.7935943 C11.5292715,17.7935943 13.0660666,17.2904275 13.965596,16.789634 L13.3295171,13.848956 L13.3295171,13.848956 Z" id="Shape" sketch:type="MSShapeGroup"></path>
            </g>
        </g>
    </g>
</svg>
