<?xml version="1.0" encoding="utf-8"?>
<!-- Generator: Adobe Illustrator 17.1.0, SVG Export Plug-In . SVG Version: 6.00 Build 0)  -->
<!DOCTYPE svg PUBLIC "-//W3C//DTD SVG 1.1//EN" "http://www.w3.org/Graphics/SVG/1.1/DTD/svg11.dtd">
<svg version="1.1" xmlns="http://www.w3.org/2000/svg" xmlns:xlink="http://www.w3.org/1999/xlink" x="0px" y="0px"
	 viewBox="0 0 24 24" enable-background="new 0 0 24 24" xml:space="preserve">
<g id="Layer_3" display="none">
</g>
<g id="Layer_4">
</g>
<g id="Layer_1">
	<rect fill="#FFFFFF" width="24" height="24"/>
</g>
<g id="Layer_5">
	<path d="M18.5,3.6h-13c-1,0-1.9,0.8-1.9,1.9v13c0,1,0.8,1.9,1.9,1.9h13c1,0,1.9-0.8,1.9-1.9v-13C20.4,4.5,19.5,3.6,18.5,3.6z
		 M14.7,12.6c0,1.1-0.9,2-2,2h-1.4c-1.1,0-2-0.9-2-2v-1.4c0-1.1,0.9-2,2-2h1.4c1.1,0,2,0.9,2,2V12.6z"/>
</g>
<g id="Layer_2">
</g>
</svg>
