<?xml version="1.0" encoding="utf-8"?>
<!-- Generator: Adobe Illustrator 17.1.0, SVG Export Plug-In . SVG Version: 6.00 Build 0)  -->
<!DOCTYPE svg PUBLIC "-//W3C//DTD SVG 1.1//EN" "http://www.w3.org/Graphics/SVG/1.1/DTD/svg11.dtd">
<svg version="1.1" xmlns="http://www.w3.org/2000/svg" xmlns:xlink="http://www.w3.org/1999/xlink" x="0px" y="0px"
	 viewBox="0 0 24 24" enable-background="new 0 0 24 24" xml:space="preserve">
<g id="Layer_3" display="none">
</g>
<g id="Layer_4">
</g>
<g id="Layer_1">
	<rect fill="#FFFFFF" width="24" height="24"/>
	<path d="M19,3.1H5C4,3.1,3.1,4,3.1,5V19C3.1,20,4,20.9,5,20.9H19c1.1,0,1.9-0.9,1.9-1.9V5C20.9,4,20,3.1,19,3.1z M18.4,18.2
		c0,0.1-0.1,0.2-0.2,0.2H5.7c-0.1,0-0.2-0.1-0.2-0.2V5.7c0-0.1,0.1-0.2,0.2-0.2h12.5c0.1,0,0.2,0.1,0.2,0.2V18.2z"/>
</g>
<g id="Layer_5">
</g>
<g id="Layer_2">
</g>
</svg>
