<?xml version="1.0" encoding="utf-8"?>
<!-- Generator: Adobe Illustrator 17.1.0, SVG Export Plug-In . SVG Version: 6.00 Build 0)  -->
<!DOCTYPE svg PUBLIC "-//W3C//DTD SVG 1.1//EN" "http://www.w3.org/Graphics/SVG/1.1/DTD/svg11.dtd">
<svg version="1.1" xmlns="http://www.w3.org/2000/svg" xmlns:xlink="http://www.w3.org/1999/xlink" x="0px" y="0px"
	 viewBox="0 0 24 24" enable-background="new 0 0 24 24" xml:space="preserve">
<g id="Layer_3" display="none">
</g>
<g id="Layer_4">
</g>
<g id="Layer_1">
	<rect fill="#FFFFFF" width="24" height="24"/>
	<path d="M18.8,3.2H5.2c-1.1,0-1.9,0.9-1.9,1.9v13.6c0,1.1,0.9,1.9,1.9,1.9h13.6c1.1,0,1.9-0.9,1.9-1.9V5.2
		C20.7,4.1,19.9,3.2,18.8,3.2z M17.5,17c0,0.3-0.2,0.5-0.5,0.5H7c-0.3,0-0.5-0.2-0.5-0.5V7c0-0.3,0.2-0.5,0.5-0.5h10
		c0.3,0,0.5,0.2,0.5,0.5V17z"/>
</g>
<g id="Layer_5">
</g>
<g id="Layer_2">
</g>
</svg>
