<?xml version="1.0" encoding="utf-8"?>
<!-- Generator: Adobe Illustrator 17.1.0, SVG Export Plug-In . SVG Version: 6.00 Build 0)  -->
<!DOCTYPE svg PUBLIC "-//W3C//DTD SVG 1.1//EN" "http://www.w3.org/Graphics/SVG/1.1/DTD/svg11.dtd">
<svg version="1.1" xmlns="http://www.w3.org/2000/svg" xmlns:xlink="http://www.w3.org/1999/xlink" x="0px" y="0px"
	 viewBox="0 0 24 24" enable-background="new 0 0 24 24" xml:space="preserve">
<g id="bg" display="none">
	<rect x="0" y="0" display="inline" fill="#FF5C56" width="24" height="24"/>
</g>
<g id="Layer_4">
</g>
<g id="svg">
</g>
<g id="png">
</g>
<g id="artboards">
	<path d="M12,6.8c-2.9,0-5.2,2.4-5.2,5.2s2.4,5.2,5.2,5.2c2.9,0,5.2-2.4,5.2-5.2S14.9,6.8,12,6.8z"/>
	<path d="M12,2.8c-5.1,0-9.2,4.1-9.2,9.2s4.1,9.2,9.2,9.2s9.2-4.1,9.2-9.2S17.1,2.8,12,2.8z M12,19.4c-4.1,0-7.4-3.3-7.4-7.4
		S7.9,4.6,12,4.6s7.4,3.3,7.4,7.4S16.1,19.4,12,19.4z"/>
</g>
<g id="Layer_6">
</g>
</svg>
