<?xml version="1.0" encoding="utf-8"?>
<!-- Generator: Adobe Illustrator 17.1.0, SVG Export Plug-In . SVG Version: 6.00 Build 0)  -->
<!DOCTYPE svg PUBLIC "-//W3C//DTD SVG 1.1//EN" "http://www.w3.org/Graphics/SVG/1.1/DTD/svg11.dtd">
<svg version="1.1" xmlns="http://www.w3.org/2000/svg" xmlns:xlink="http://www.w3.org/1999/xlink" x="0px" y="0px"
	 viewBox="0 0 24 24" enable-background="new 0 0 24 24" xml:space="preserve">
<g id="bg" display="none">
	<rect x="0" y="0" display="inline" fill="#FF5C56" width="24" height="24"/>
</g>
<g id="Layer_4">
</g>
<g id="svg">
</g>
<g id="png">
</g>
<g id="artboards">
	<path d="M12,5.4c-3.7,0-6.6,3-6.6,6.7s3,6.6,6.6,6.6c3.7,0,6.6-3,6.6-6.6S15.7,5.4,12,5.4z"/>
	<path d="M12,3c-5,0-9,4-9,9s4,9,9,9s9-4,9-9S17,3,12,3z M12,19.2c-4,0-7.2-3.2-7.2-7.2S8,4.8,12,4.8S19.2,8,19.2,12
		S16,19.2,12,19.2z"/>
</g>
<g id="Layer_6">
</g>
</svg>
