<?xml version="1.0" encoding="utf-8"?>
<!-- Generator: Adobe Illustrator 17.1.0, SVG Export Plug-In . SVG Version: 6.00 Build 0)  -->
<!DOCTYPE svg PUBLIC "-//W3C//DTD SVG 1.1//EN" "http://www.w3.org/Graphics/SVG/1.1/DTD/svg11.dtd">
<svg version="1.1" xmlns="http://www.w3.org/2000/svg" xmlns:xlink="http://www.w3.org/1999/xlink" x="0px" y="0px"
	 viewBox="0 0 24 24" enable-background="new 0 0 24 24" xml:space="preserve">
<g id="bg" display="none">
	<rect x="0" y="0" display="inline" fill="#FF5C56" width="24" height="24"/>
</g>
<g id="Layer_4">
</g>
<g id="svg">
</g>
<g id="png">
</g>
<g id="artboards">
	<g>
		<path d="M12,7c-2.8,0-5,2.2-5,5s2.2,5,5,5c2.8,0,5-2.2,5-5S14.8,7,12,7z"/>
	</g>
	<path d="M12,2.3c-5.4,0-9.8,4.4-9.8,9.8s4.4,9.8,9.8,9.8s9.8-4.4,9.8-9.8S17.4,2.3,12,2.3z M12,19.8c-4.3,0-7.8-3.5-7.8-7.8
		S7.7,4.2,12,4.2s7.8,3.5,7.8,7.8S16.3,19.8,12,19.8z"/>
</g>
<g id="Layer_6">
</g>
</svg>
