<?xml version="1.0" encoding="utf-8"?>
<!DOCTYPE svg PUBLIC "-//W3C//DTD SVG 1.1//EN" "http://www.w3.org/Graphics/SVG/1.1/DTD/svg11.dtd">
<svg version="1.1" xmlns="http://www.w3.org/2000/svg" xmlns:xlink="http://www.w3.org/1999/xlink" x="0px" y="0px"
	 viewBox="0 0 100 100" enable-background="new 0 0 100 100" xml:space="preserve">
<g id="Layer_1">
  <path d="M 50 0 L 100 14 L 92 80 L 50 100 L 8 80 L 0 14 Z" fill="#b2b2b2"></path>
  <path d="M 50 5 L 6 18 L 13.5 77 L 50 94 Z" fill="#E42939" md-fill-level="700"></path>
  <path d="M 50 5 L 94 18 L 86.5 77 L 50 94 Z" fill="#B72833" md-fill-level="900"></path>
  <path d="M 50 7 L 83 75 L 72 75 L 65 59 L 50 59 L 50 50 L 61 50 L 50 26 Z" fill="#b2b2b2"></path>
  <path d="M 50 7 L 17 75 L 28 75 L 35 59 L 50 59 L 50 50 L 39 50 L 50 26 Z" fill="#fff"></path>
</g>
</svg>
