<?xml version="1.0" encoding="utf-8"?>
<!-- Generator: Adobe Illustrator 17.1.0, SVG Export Plug-In . SVG Version: 6.00 Build 0)  -->
<!DOCTYPE svg PUBLIC "-//W3C//DTD SVG 1.1//EN" "http://www.w3.org/Graphics/SVG/1.1/DTD/svg11.dtd">
<svg version="1.1" xmlns="http://www.w3.org/2000/svg" xmlns:xlink="http://www.w3.org/1999/xlink" x="0px" y="0px" width="24px"
	 height="24px" viewBox="0 0 24 24" enable-background="new 0 0 24 24" xml:space="preserve">
<g id="Header">
	<g>
		<rect x="-618" y="-1080" fill="none" width="1400" height="3600"/>
	</g>
</g>
<g id="Label">
</g>
<g id="Icon">
	<g>
		<g>
			<path d="M12,15c1.7,0,3-1.3,3-3l0-6c0-1.7-1.3-3-3-3c-1.7,0-3,1.3-3,3v6C9,13.7,10.3,15,12,15z M17.3,12c0,3-2.5,5.1-5.3,5.1
				c-2.8,0-5.3-2.1-5.3-5.1H5c0,3.4,2.7,6.2,6,6.7V22h2v-3.3c3.3-0.5,6-3.3,6-6.7H17.3z"/>
		</g>
		<rect x="0" fill="none" width="24" height="24"/>
	</g>
</g>
<g id="Grid" display="none">
	<g display="inline">
	</g>
</g>
</svg>
