<?xml version="1.0" encoding="utf-8"?>
<!-- Generator: Adobe Illustrator 17.1.0, SVG Export Plug-In . SVG Version: 6.00 Build 0)  -->
<!DOCTYPE svg PUBLIC "-//W3C//DTD SVG 1.1//EN" "http://www.w3.org/Graphics/SVG/1.1/DTD/svg11.dtd">
<svg version="1.1" xmlns="http://www.w3.org/2000/svg" xmlns:xlink="http://www.w3.org/1999/xlink" x="0px" y="0px"
	 viewBox="0 0 24 24" enable-background="new 0 0 24 24" xml:space="preserve">
<g id="bg" display="none">
	<rect x="0" y="0" display="inline" fill="#FF5C56" width="24" height="24"/>
</g>
<g id="Layer_4">
</g>
<g id="svg">
	<path d="M12,5.08c-3.82,0-6.92,3.1-6.92,6.92s3.1,6.92,6.92,6.92s6.92-3.1,6.92-6.92S15.83,5.08,12,5.08z M12,12.15
		c-0.08,0-0.15-0.07-0.15-0.15s0.07-0.15,0.15-0.15c0.08,0,0.15,0.07,0.15,0.15S12.09,12.15,12,12.15z"/>
	<path d="M12,3c-4.97,0-9,4.03-9,9c0,4.97,4.03,9,9,9c4.97,0,9-4.03,9-9C21,7.03,16.97,3,12,3z M12,19.2c-3.98,0-7.2-3.22-7.2-7.2
		S8.03,4.8,12,4.8s7.2,3.22,7.2,7.2S15.98,19.2,12,19.2z"/>
</g>
<g id="png">
</g>
<g id="artboards">
</g>
<g id="Layer_6">
</g>
</svg>
