<?xml version="1.0" encoding="utf-8"?>
<!-- Generator: Adobe Illustrator 17.1.0, SVG Export Plug-In . SVG Version: 6.00 Build 0)  -->
<!DOCTYPE svg PUBLIC "-//W3C//DTD SVG 1.1//EN" "http://www.w3.org/Graphics/SVG/1.1/DTD/svg11.dtd">
<svg version="1.1" xmlns="http://www.w3.org/2000/svg" xmlns:xlink="http://www.w3.org/1999/xlink" x="0px" y="0px"
	 viewBox="0 0 24 24" enable-background="new 0 0 24 24" xml:space="preserve">
<g id="bg" display="none">
	<g display="inline">
		<polyline fill="#FF5C56" points="24,0 24,24 0,24 0,0 		"/>
	</g>
</g>
<g id="Layer_4">
</g>
<g id="svg">
	<g>
		<path d="M12,7c-2.76,0-5,2.24-5,5s2.24,5,5,5c2.76,0,5-2.24,5-5S14.76,7,12,7z M12,2C6.48,2,2,6.48,2,12s4.48,10,10,10
			c5.52,0,10-4.48,10-10S17.52,2,12,2z M12,20c-4.42,0-8-3.58-8-8s3.58-8,8-8s8,3.58,8,8S16.42,20,12,20z"/>
	</g>
</g>
<g id="png">
</g>
<g id="artboards">
</g>
<g id="Layer_6">
</g>
</svg>
