<?xml version="1.0" encoding="utf-8"?>
<!-- Generator: Adobe Illustrator 17.1.0, SVG Export Plug-In . SVG Version: 6.00 Build 0)  -->
<!DOCTYPE svg PUBLIC "-//W3C//DTD SVG 1.1//EN" "http://www.w3.org/Graphics/SVG/1.1/DTD/svg11.dtd" [
	<!ENTITY ns_extend "http://ns.adobe.com/Extensibility/1.0/">
	<!ENTITY ns_ai "http://ns.adobe.com/AdobeIllustrator/10.0/">
	<!ENTITY ns_graphs "http://ns.adobe.com/Graphs/1.0/">
	<!ENTITY ns_vars "http://ns.adobe.com/Variables/1.0/">
	<!ENTITY ns_imrep "http://ns.adobe.com/ImageReplacement/1.0/">
	<!ENTITY ns_sfw "http://ns.adobe.com/SaveForWeb/1.0/">
	<!ENTITY ns_custom "http://ns.adobe.com/GenericCustomNamespace/1.0/">
	<!ENTITY ns_adobe_xpath "http://ns.adobe.com/XPath/1.0/">
]>
<svg version="1.1" xmlns:x="&ns_extend;" xmlns:i="&ns_ai;" xmlns:graph="&ns_graphs;"
	 xmlns="http://www.w3.org/2000/svg" xmlns:xlink="http://www.w3.org/1999/xlink" x="0px" y="0px" width="48px" height="48px"
	 viewBox="0 0 48 48" enable-background="new 0 0 48 48" xml:space="preserve">
<metadata>
	<sfw  xmlns="&ns_sfw;">
		<slices></slices>
		<sliceSourceBounds  width="1400" height="3600" y="-3112" x="-3" bottomLeftOrigin="true"></sliceSourceBounds>
	</sfw>
</metadata>
<g id="Header">
	<g>
		<rect x="-838" y="-1464" fill="none" width="1400" height="3600"/>
	</g>
</g>
<g id="Label">
</g>
<g id="Icon">
	<g>
		<g>
			<rect x="0" fill="none" width="48" height="48"/>
		</g>
		<g>
			<rect x="0" fill="none" width="48" height="48"/>
		</g>
		<g>
			<path d="M38,22h-3.4c0,1.5-0.3,2.9-0.9,4.1l2.5,2.5C37.3,26.6,38,24.4,38,22z"/>
			<path d="M30,22.3c0-0.1,0-0.2,0-0.3V10c0-3.3-2.7-6-6-6c-3.3,0-6,2.7-6,6v0.4L30,22.3z"/>
			<path d="M8.5,6L6,8.5l12,12l0,1.4c0,3.3,2.7,6,6,6c0.4,0,0.9-0.1,1.3-0.2l3.3,3.3c-1.4,0.7-3,1-4.6,1c-5.5,0-10.6-4.2-10.6-10.2
				H10c0,6.8,5.4,12.5,12,13.4V42h4v-6.6c1.8-0.3,3.5-0.9,5.1-1.8l8.4,8.4l2.5-2.5L8.5,6z"/>
		</g>
	</g>
</g>
<g id="Grid" display="none">
	<g display="inline">
		<line fill="none" stroke="#00E5FF" stroke-width="0.1" stroke-miterlimit="10" x1="42" y1="-1464" x2="42" y2="2088"/>
	</g>
</g>
</svg>
