<?xml version="1.0" encoding="utf-8"?>
<!-- Generator: Adobe Illustrator 17.1.0, SVG Export Plug-In . SVG Version: 6.00 Build 0)  -->
<!DOCTYPE svg PUBLIC "-//W3C//DTD SVG 1.1//EN" "http://www.w3.org/Graphics/SVG/1.1/DTD/svg11.dtd" [
	<!ENTITY ns_extend "http://ns.adobe.com/Extensibility/1.0/">
	<!ENTITY ns_ai "http://ns.adobe.com/AdobeIllustrator/10.0/">
	<!ENTITY ns_graphs "http://ns.adobe.com/Graphs/1.0/">
	<!ENTITY ns_vars "http://ns.adobe.com/Variables/1.0/">
	<!ENTITY ns_imrep "http://ns.adobe.com/ImageReplacement/1.0/">
	<!ENTITY ns_sfw "http://ns.adobe.com/SaveForWeb/1.0/">
	<!ENTITY ns_custom "http://ns.adobe.com/GenericCustomNamespace/1.0/">
	<!ENTITY ns_adobe_xpath "http://ns.adobe.com/XPath/1.0/">
]>
<svg version="1.1" xmlns:x="&ns_extend;" xmlns:i="&ns_ai;" xmlns:graph="&ns_graphs;"
	 xmlns="http://www.w3.org/2000/svg" xmlns:xlink="http://www.w3.org/1999/xlink" x="0px" y="0px" width="24px" height="24px"
	 viewBox="0 0 24 24" enable-background="new 0 0 24 24" xml:space="preserve">
<metadata>
	<sfw  xmlns="&ns_sfw;">
		<slices></slices>
		<sliceSourceBounds  width="1400" height="3600" y="-3112" x="-3" bottomLeftOrigin="true"></sliceSourceBounds>
	</sfw>
</metadata>
<g id="Header">
	<g>
		<rect x="-618" y="-696" fill="none" width="1400" height="3600"/>
	</g>
</g>
<g id="Label">
</g>
<g id="Icon">
	<g>
		<rect fill="none" width="24" height="24"/>
		<polygon fill="none" points="18.3,6 18.3,6 15.6,11 		"/>
		<path d="M11,9h2V6h3V4h-3V1h-2v3H8v2h3V9z M7,18c-1.1,0-2,0.9-2,2s0.9,2,2,2s2-0.9,2-2S8.1,18,7,18z M17,18c-1.1,0-2,0.9-2,2
			s0.9,2,2,2s2-0.9,2-2S18.1,18,17,18z M7.2,14.8c0,0,0-0.1,0-0.1L8.1,13h7.4c0.8,0,1.4-0.4,1.7-1l3.9-7l-1.7-1h0l-1.1,2l-2.8,5h-7
			l-0.1-0.3L6.2,6L5.2,4L4.3,2H1v2h2l3.6,7.6L5.2,14C5.1,14.3,5,14.7,5,15c0,1.1,0.9,2,2,2h12v-2H7.4C7.3,15,7.2,14.9,7.2,14.8z"/>
	</g>
</g>
<g id="Grid" display="none">
	<g display="inline">
	</g>
</g>
</svg>
