<?xml version="1.0" encoding="utf-8"?>
<!-- Generator: Adobe Illustrator 17.1.0, SVG Export Plug-In . SVG Version: 6.00 Build 0)  -->
<!DOCTYPE svg PUBLIC "-//W3C//DTD SVG 1.1//EN" "http://www.w3.org/Graphics/SVG/1.1/DTD/svg11.dtd">
<svg version="1.1" xmlns="http://www.w3.org/2000/svg" xmlns:xlink="http://www.w3.org/1999/xlink" x="0px" y="0px" width="48px"
	 height="48px" viewBox="0 0 48 48" enable-background="new 0 0 48 48" xml:space="preserve">
<g id="Header">
	<g>
		<rect x="-838" y="-3256" fill="none" width="1400" height="3600"/>
	</g>
</g>
<g id="Label">
	<g>
		<rect fill="none" width="48" height="48"/>
		<path fill="#231F20" d="M12,36c0,1.1,0.9,2,2,2h2v7c0,1.7,1.3,3,3,3c1.7,0,3-1.3,3-3v-7h4v7c0,1.7,1.3,3,3,3c1.7,0,3-1.3,3-3v-7h2
			c1.1,0,2-0.9,2-2V16H12V36z M7,16c-1.7,0-3,1.3-3,3v14c0,1.7,1.3,3,3,3c1.7,0,3-1.3,3-3V19C10,17.3,8.7,16,7,16z M41,16
			c-1.7,0-3,1.3-3,3v14c0,1.7,1.3,3,3,3c1.7,0,3-1.3,3-3V19C44,17.3,42.7,16,41,16z M31.1,4.3l2.6-2.6c0.4-0.4,0.4-1,0-1.4
			c-0.4-0.4-1-0.4-1.4,0l-3,3C27.7,2.5,25.9,2,24,2c-1.9,0-3.7,0.5-5.3,1.3l-3-3c-0.4-0.4-1-0.4-1.4,0c-0.4,0.4-0.4,1,0,1.4l2.6,2.6
			C13.9,6.5,12,10,12,14h24C36,10,34.1,6.5,31.1,4.3z M20,10h-2V8h2V10z M30,10h-2V8h2V10z"/>
	</g>
</g>
<g id="Icon">
</g>
<g id="Grid" display="none">
	<g display="inline">
		<line fill="none" stroke="#00E5FF" stroke-width="0.1" stroke-miterlimit="10" x1="42" y1="-3256" x2="42" y2="296"/>
	</g>
</g>
</svg>
