<?xml version="1.0" encoding="utf-8"?>
<!-- Generator: Adobe Illustrator 17.1.0, SVG Export Plug-In . SVG Version: 6.00 Build 0)  -->
<!DOCTYPE svg PUBLIC "-//W3C//DTD SVG 1.1//EN" "http://www.w3.org/Graphics/SVG/1.1/DTD/svg11.dtd">
<svg version="1.1" xmlns="http://www.w3.org/2000/svg" xmlns:xlink="http://www.w3.org/1999/xlink" x="0px" y="0px" width="48px"
	 height="48px" viewBox="0 0 48 48" enable-background="new 0 0 48 48" xml:space="preserve">
<g id="Header">
	<g>
		<rect x="-838" y="-2360" fill="none" width="1400" height="3600"/>
	</g>
</g>
<g id="Label">
</g>
<g id="Icon">
	<g>
		<g>
			<rect fill="none" width="48" height="48"/>
		</g>
		<path d="M40,16h-5.6c-0.9-1.6-2.1-2.9-3.6-3.9L34,8.8L31.2,6l-4.3,4.3C25.9,10.1,25,10,24,10s-1.9,0.1-2.8,0.3L16.8,6L14,8.8
			l3.2,3.3c-1.5,1-2.7,2.4-3.6,3.9H8v4h4.2c-0.1,0.7-0.2,1.3-0.2,2v2H8v4h4v2c0,0.7,0.1,1.3,0.2,2H8v4h5.6c2.1,3.6,5.9,6,10.4,6
			s8.3-2.4,10.4-6H40v-4h-4.2c0.1-0.7,0.2-1.3,0.2-2v-2h4v-4h-4v-2c0-0.7-0.1-1.3-0.2-2H40V16z M28,32h-8v-4h8V32z M28,24h-8v-4h8
			V24z"/>
	</g>
</g>
<g id="Grid" display="none">
	<g display="inline">
		<line fill="none" stroke="#00E5FF" stroke-width="0.1" stroke-miterlimit="10" x1="42" y1="-2360" x2="42" y2="1192"/>
	</g>
</g>
</svg>
