<?xml version="1.0" encoding="utf-8"?>
<!-- Generator: Adobe Illustrator 17.1.0, SVG Export Plug-In . SVG Version: 6.00 Build 0)  -->
<!DOCTYPE svg PUBLIC "-//W3C//DTD SVG 1.1//EN" "http://www.w3.org/Graphics/SVG/1.1/DTD/svg11.dtd" [
	<!ENTITY ns_extend "http://ns.adobe.com/Extensibility/1.0/">
	<!ENTITY ns_ai "http://ns.adobe.com/AdobeIllustrator/10.0/">
	<!ENTITY ns_graphs "http://ns.adobe.com/Graphs/1.0/">
	<!ENTITY ns_vars "http://ns.adobe.com/Variables/1.0/">
	<!ENTITY ns_imrep "http://ns.adobe.com/ImageReplacement/1.0/">
	<!ENTITY ns_sfw "http://ns.adobe.com/SaveForWeb/1.0/">
	<!ENTITY ns_custom "http://ns.adobe.com/GenericCustomNamespace/1.0/">
	<!ENTITY ns_adobe_xpath "http://ns.adobe.com/XPath/1.0/">
]>
<svg version="1.1" xmlns:x="&ns_extend;" xmlns:i="&ns_ai;" xmlns:graph="&ns_graphs;"
	 xmlns="http://www.w3.org/2000/svg" xmlns:xlink="http://www.w3.org/1999/xlink" x="0px" y="0px" width="48px" height="48px"
	 viewBox="0 0 48 48" enable-background="new 0 0 48 48" xml:space="preserve">
<metadata>
	<sfw  xmlns="&ns_sfw;">
		<slices></slices>
		<sliceSourceBounds  width="1400" height="3600" y="-3112" x="-3" bottomLeftOrigin="true"></sliceSourceBounds>
	</sfw>
</metadata>
<g id="Header">
	<rect x="-838" y="-1592" fill="none" width="1400" height="3600"/>
</g>
<g id="Label">
</g>
<g id="Icon">
	<g>
		<path d="M8,10h32v4h4l0-4c0-2.2-1.8-4-4-4H8c-2.2,0-4,1.8-4,4v4h4V10z M15.1,27.7L9.4,22l5.7-5.7l-2.8-2.8L3.8,22l8.5,8.5
			L15.1,27.7z M40,34H8v-4H4v4c0,2.2,1.8,4,4,4h8v4h16v-4h8c2.2,0,4-1.8,4-4l0-4h-4V34z M44,22l-8.5-8.5l-2.8,2.8l5.7,5.7l-5.7,5.7
			l2.8,2.8L44,22L44,22L44,22L44,22L44,22z"/>
		<rect fill="none" width="48" height="48"/>
	</g>
</g>
<g id="Grid" display="none">
	<g display="inline">
		<line fill="none" stroke="#00E5FF" stroke-width="0.1" stroke-miterlimit="10" x1="42" y1="-1592" x2="42" y2="1960"/>
	</g>
</g>
</svg>
