<?xml version="1.0" encoding="utf-8"?>
<!-- Generator: Adobe Illustrator 17.1.0, SVG Export Plug-In . SVG Version: 6.00 Build 0)  -->
<!DOCTYPE svg PUBLIC "-//W3C//DTD SVG 1.1//EN" "http://www.w3.org/Graphics/SVG/1.1/DTD/svg11.dtd">
<svg version="1.1" xmlns="http://www.w3.org/2000/svg" xmlns:xlink="http://www.w3.org/1999/xlink" x="0px" y="0px" width="48px"
	 height="48px" viewBox="0 0 48 48" enable-background="new 0 0 48 48" xml:space="preserve">
<g id="Header">
	<g>
		<rect x="-838" y="-1848" fill="none" width="1400" height="3600"/>
	</g>
</g>
<g id="Label">
</g>
<g id="Icon">
	<g>
		<g>
			<rect fill="none" width="48" height="48"/>
		</g>
		<path d="M41,22h-3v-8c0-2.2-1.8-4-4-4h-8V7c0-2.8-2.2-5-5-5c-2.8,0-5,2.2-5,5v3H8c-2.2,0-4,1.8-4,4l0,7.6h3c3,0,5.4,2.4,5.4,5.4
			S10,32.4,7,32.4H4L4,40c0,2.2,1.8,4,4,4h7.6v-3c0-3,2.4-5.4,5.4-5.4c3,0,5.4,2.4,5.4,5.4v3H34c2.2,0,4-1.8,4-4v-8h3
			c2.8,0,5-2.2,5-5S43.8,22,41,22z"/>
	</g>
</g>
<g id="Grid" display="none">
	<g display="inline">
		<line fill="none" stroke="#00E5FF" stroke-width="0.1" stroke-miterlimit="10" x1="42" y1="-1848" x2="42" y2="1704"/>
	</g>
</g>
</svg>
