<?xml version="1.0" encoding="utf-8"?>
<!-- Generator: Adobe Illustrator 17.1.0, SVG Export Plug-In . SVG Version: 6.00 Build 0)  -->
<!DOCTYPE svg PUBLIC "-//W3C//DTD SVG 1.1//EN" "http://www.w3.org/Graphics/SVG/1.1/DTD/svg11.dtd">
<svg version="1.1" xmlns="http://www.w3.org/2000/svg" xmlns:xlink="http://www.w3.org/1999/xlink" x="0px" y="0px" width="24px"
	 height="24px" viewBox="0 0 24 24" enable-background="new 0 0 24 24" xml:space="preserve">
<g id="Header">
	<g>
		<rect x="-618" y="-2232" fill="none" width="1400" height="3600"/>
	</g>
</g>
<g id="Label">
</g>
<g id="Icon">
	<g>
		<g>
			<rect fill="none" width="24" height="24"/>
		</g>
		<path d="M9,7H7l0,2h2V7z M9,11H7v2h2V11z M9,3C7.9,3,7,3.9,7,5h2V3z M13,15h-2v2h2V15z M19,3v2h2C21,3.9,20.1,3,19,3z M13,3h-2v2
			h2V3z M9,17v-2H7C7,16.1,7.9,17,9,17z M19,13h2v-2h-2V13z M19,9h2V7h-2V9z M19,17c1.1,0,2-0.9,2-2h-2V17z M5,7H3v2h0l0,10
			c0,1.1,0.9,2,2,2h12v-2H5V7z M15,5h2V3h-2V5z M15,17h2v-2h-2V17z"/>
	</g>
</g>
<g id="Grid" display="none">
	<g display="inline">
	</g>
</g>
</svg>
