<?xml version="1.0" encoding="utf-8"?>
<!-- Generator: Adobe Illustrator 17.1.0, SVG Export Plug-In . SVG Version: 6.00 Build 0)  -->
<!DOCTYPE svg PUBLIC "-//W3C//DTD SVG 1.1//EN" "http://www.w3.org/Graphics/SVG/1.1/DTD/svg11.dtd">
<svg version="1.1" xmlns="http://www.w3.org/2000/svg" xmlns:xlink="http://www.w3.org/1999/xlink" x="0px" y="0px" width="24px"
	 height="24px" viewBox="0 0 24 24" enable-background="new 0 0 24 24" xml:space="preserve">
<g id="Header">
	<g>
		<rect x="-618" y="-2104" fill="none" width="1400" height="3600"/>
	</g>
</g>
<g id="Label">
</g>
<g id="Icon">
	<g>
		<rect fill="none" width="24" height="24"/>
		<g>
			<path d="M16.5,3c-1.7,0-3.4,0.8-4.5,2.1C10.9,3.8,9.2,3,7.5,3C4.4,3,2,5.4,2,8.5c0,3.8,3.4,6.9,8.6,11.5l1.4,1.3l1.4-1.3
				c5.1-4.7,8.6-7.8,8.6-11.5C22,5.4,19.6,3,16.5,3z M12.1,18.6L12,18.6l-0.1-0.1C7.1,14.2,4,11.4,4,8.5C4,6.5,5.5,5,7.5,5
				c1.5,0,3,1,3.6,2.4h1.9C13.5,6,15,5,16.5,5c2,0,3.5,1.5,3.5,3.5C20,11.4,16.9,14.2,12.1,18.6z"/>
		</g>
	</g>
</g>
<g id="Grid" display="none">
	<g display="inline">
	</g>
</g>
</svg>
