<?xml version="1.0" encoding="utf-8"?>
<!-- Generator: Adobe Illustrator 17.1.0, SVG Export Plug-In . SVG Version: 6.00 Build 0)  -->
<!DOCTYPE svg PUBLIC "-//W3C//DTD SVG 1.1//EN" "http://www.w3.org/Graphics/SVG/1.1/DTD/svg11.dtd">
<svg version="1.1" xmlns="http://www.w3.org/2000/svg" xmlns:xlink="http://www.w3.org/1999/xlink" x="0px" y="0px" width="48px"
	 height="48px" viewBox="0 0 48 48" enable-background="new 0 0 48 48" xml:space="preserve">
<g id="Header">
	<g>
		<rect x="-838" y="-2360" fill="none" width="1400" height="3600"/>
	</g>
</g>
<g id="Label">
</g>
<g id="Icon">
	<g>
		<g>
			<rect fill="none" width="48" height="48"/>
		</g>
		<path d="M6,26h4v-4H6L6,26z M6,34h4v-4H6V34z M10,42v-4H6C6,40.2,7.8,42,10,42z M6,18h4v-4H6V18z M30,42h4v-4h-4V42z M38,6H18
			c-2.2,0-4,1.8-4,4v4h0v4v12c0,2.2,1.8,4,4,4h10h8h2c2.2,0,4-1.8,4-4V10C42,7.8,40.2,6,38,6z M38,30H18V10h20V30z M22,42h4v-4h-4
			V42z M14,42h4v-4h-4V42z"/>
	</g>
</g>
<g id="Grid" display="none">
	<g display="inline">
		<line fill="none" stroke="#00E5FF" stroke-width="0.1" stroke-miterlimit="10" x1="42" y1="-2360" x2="42" y2="1192"/>
	</g>
</g>
</svg>
