<?xml version="1.0" encoding="utf-8"?>
<!-- Generator: Adobe Illustrator 17.1.0, SVG Export Plug-In . SVG Version: 6.00 Build 0)  -->
<!DOCTYPE svg PUBLIC "-//W3C//DTD SVG 1.1//EN" "http://www.w3.org/Graphics/SVG/1.1/DTD/svg11.dtd">
<svg version="1.1" xmlns="http://www.w3.org/2000/svg" xmlns:xlink="http://www.w3.org/1999/xlink" x="0px" y="0px" width="48px"
	 height="48px" viewBox="0 0 48 48" enable-background="new 0 0 48 48" xml:space="preserve">
<g id="Header">
	<g>
		<rect x="-838" y="-2104" fill="none" width="1400" height="3600"/>
	</g>
</g>
<g id="Label">
</g>
<g id="Icon">
	<g>
		<rect fill="none" width="48" height="48"/>
		<g>
			<path d="M33,6c-3.5,0-6.8,1.6-9,4.2C21.8,7.6,18.5,6,15,6C8.8,6,4,10.8,4,17c0,7.6,6.8,13.7,17.1,23.1l2.9,2.6l2.9-2.6
				C37.2,30.7,44,24.6,44,17C44,10.8,39.2,6,33,6z M24.2,37.1L24,37.3l-0.2-0.2C14.3,28.5,8,22.8,8,17c0-4,3-7,7-7
				c3.1,0,6.1,2,7.1,4.7h3.7C26.9,12,29.9,10,33,10c4,0,7,3,7,7C40,22.8,33.7,28.5,24.2,37.1z"/>
		</g>
	</g>
</g>
<g id="Grid" display="none">
	<g display="inline">
		<line fill="none" stroke="#00E5FF" stroke-width="0.1" stroke-miterlimit="10" x1="42" y1="-2104" x2="42" y2="1448"/>
	</g>
</g>
</svg>
