<?xml version="1.0" encoding="utf-8"?>
<!-- Generator: Adobe Illustrator 17.1.0, SVG Export Plug-In . SVG Version: 6.00 Build 0)  -->
<!DOCTYPE svg PUBLIC "-//W3C//DTD SVG 1.1//EN" "http://www.w3.org/Graphics/SVG/1.1/DTD/svg11.dtd">
<svg version="1.1" xmlns="http://www.w3.org/2000/svg" xmlns:xlink="http://www.w3.org/1999/xlink" x="0px" y="0px" width="48px"
	 height="48px" viewBox="0 0 48 48" enable-background="new 0 0 48 48" xml:space="preserve">
<g id="Header">
	<g>
		<rect x="-838" y="-2232" fill="none" width="1400" height="3600"/>
	</g>
</g>
<g id="Label">
</g>
<g id="Icon">
	<g>
		<g>
			<rect fill="none" width="48" height="48"/>
		</g>
		<path d="M18,14h-4l0,4h4V14z M18,22h-4v4h4V22z M18,6c-2.2,0-4,1.8-4,4h4V6z M26,30h-4v4h4V30z M38,6v4h4C42,7.8,40.2,6,38,6z
			 M26,6h-4v4h4V6z M18,34v-4h-4C14,32.2,15.8,34,18,34z M38,26h4v-4h-4V26z M38,18h4v-4h-4V18z M38,34c2.2,0,4-1.8,4-4h-4V34z
			 M10,14H6v4h0l0,20c0,2.2,1.8,4,4,4h24v-4H10V14z M30,10h4V6h-4V10z M30,34h4v-4h-4V34z"/>
	</g>
</g>
<g id="Grid" display="none">
	<g display="inline">
		<line fill="none" stroke="#00E5FF" stroke-width="0.1" stroke-miterlimit="10" x1="42" y1="-2232" x2="42" y2="1320"/>
	</g>
</g>
</svg>
