<?xml version="1.0" encoding="utf-8"?>
<!-- Generator: Adobe Illustrator 17.1.0, SVG Export Plug-In . SVG Version: 6.00 Build 0)  -->
<!DOCTYPE svg PUBLIC "-//W3C//DTD SVG 1.1//EN" "http://www.w3.org/Graphics/SVG/1.1/DTD/svg11.dtd">
<svg version="1.1" xmlns="http://www.w3.org/2000/svg" xmlns:xlink="http://www.w3.org/1999/xlink" x="0px" y="0px" width="48px"
	 height="48px" viewBox="0 0 48 48" enable-background="new 0 0 48 48" xml:space="preserve">
<g id="Header">
	<g>
		<rect x="-838" y="-2872" fill="none" width="1400" height="3600"/>
	</g>
</g>
<g id="Label">
</g>
<g id="Icon">
	<g>
		<rect fill="none" width="48" height="48"/>
		<path opacity="0.9" d="M25,4c-7.1,0-13.2,3.8-16.4,9.5L4,9v13h13l-5.5-5.5C13.9,11.5,19,8,25,8c8.3,0,15,6.7,15,15
			c0,8.3-6.7,15-15,15c-6.5,0-12.1-4.2-14.1-10H6.7c2.2,8.1,9.5,14,18.3,14c10.5,0,19-8.5,19-19S35.5,4,25,4z M22,14v10.2l9.4,5.6
			l1.5-2.6l-8-4.7V14H22z"/>
	</g>
</g>
<g id="Grid" display="none">
	<g display="inline">
		<line fill="none" stroke="#00E5FF" stroke-width="0.1" stroke-miterlimit="10" x1="42" y1="-2872" x2="42" y2="680"/>
	</g>
</g>
</svg>
