<?xml version="1.0" encoding="utf-8"?>
<!-- Generator: Adobe Illustrator 17.1.0, SVG Export Plug-In . SVG Version: 6.00 Build 0)  -->
<!DOCTYPE svg PUBLIC "-//W3C//DTD SVG 1.1//EN" "http://www.w3.org/Graphics/SVG/1.1/DTD/svg11.dtd">
<svg version="1.1" xmlns="http://www.w3.org/2000/svg" xmlns:xlink="http://www.w3.org/1999/xlink" x="0px" y="0px" width="24px"
	 height="24px" viewBox="0 0 24 24" enable-background="new 0 0 24 24" xml:space="preserve">
<g id="Header">
	<g>
		<rect x="-618" y="-2872" fill="none" width="1400" height="3600"/>
	</g>
</g>
<g id="Label">
</g>
<g id="Icon">
	<g>
		<rect fill="none" width="24" height="24"/>
		<path opacity="0.9" d="M12.5,2C9,2,5.9,3.9,4.3,6.8L2,4.5V11h6.5L5.7,8.2C7,5.7,9.5,4,12.5,4c4.1,0,7.5,3.4,7.5,7.5
			c0,4.1-3.4,7.5-7.5,7.5c-3.3,0-6-2.1-7.1-5H3.3c1.1,4,4.8,7,9.2,7c5.3,0,9.5-4.3,9.5-9.5S17.7,2,12.5,2z M11,7v5.1l4.7,2.8
			l0.8-1.3l-4-2.4V7H11z"/>
	</g>
</g>
<g id="Grid" display="none">
	<g display="inline">
	</g>
</g>
</svg>
