<?xml version="1.0" encoding="utf-8"?>
<!-- Generator: Adobe Illustrator 17.1.0, SVG Export Plug-In . SVG Version: 6.00 Build 0)  -->
<!DOCTYPE svg PUBLIC "-//W3C//DTD SVG 1.1//EN" "http://www.w3.org/Graphics/SVG/1.1/DTD/svg11.dtd">
<svg version="1.1" xmlns="http://www.w3.org/2000/svg" xmlns:xlink="http://www.w3.org/1999/xlink" x="0px" y="0px" width="48px"
	 height="48px" viewBox="0 0 48 48" enable-background="new 0 0 48 48" xml:space="preserve">
<g id="Header">
	<g>
		<rect x="-838" y="-2616" fill="none" width="1400" height="3600"/>
	</g>
</g>
<g id="Label">
</g>
<g id="Icon">
	<g>
		<rect y="0" fill="none" width="48" height="48"/>
		<path d="M24,4C12.9,4,4,13,4,24s8.9,20,20,20c11.1,0,20-9,20-20S35,4,24,4z M37.8,16h-5.9c-0.6-2.5-1.6-4.9-2.8-7.1
			C32.9,10.1,35.9,12.7,37.8,16z M24,8.1c1.7,2.4,3,5.1,3.8,7.9h-7.6C21,13.1,22.3,10.5,24,8.1z M8.5,28C8.2,26.7,8,25.4,8,24
			s0.2-2.7,0.5-4h6.8c-0.2,1.3-0.3,2.6-0.3,4s0.1,2.7,0.3,4H8.5z M10.2,32h5.9c0.6,2.5,1.6,4.9,2.8,7.1C15.1,37.9,12.1,35.3,10.2,32
			z M16.1,16h-5.9c1.9-3.3,5-5.9,8.7-7.1C17.6,11.1,16.7,13.5,16.1,16z M24,39.9c-1.7-2.4-3-5.1-3.8-7.9h7.6
			C27,34.9,25.7,37.5,24,39.9z M28.7,28h-9.4c-0.2-1.3-0.3-2.6-0.3-4s0.1-2.7,0.3-4h9.4c0.2,1.3,0.3,2.6,0.3,4S28.9,26.7,28.7,28z
			 M29.2,39.1c1.2-2.2,2.1-4.6,2.8-7.1h5.9C35.9,35.3,32.9,37.9,29.2,39.1z M32.7,28c0.2-1.3,0.3-2.6,0.3-4s-0.1-2.7-0.3-4h6.8
			c0.3,1.3,0.5,2.6,0.5,4s-0.2,2.7-0.5,4H32.7z"/>
	</g>
</g>
<g id="Grid" display="none">
	<g display="inline">
		<line fill="none" stroke="#00E5FF" stroke-width="0.1" stroke-miterlimit="10" x1="42" y1="-2616" x2="42" y2="936"/>
	</g>
</g>
</svg>
