<?xml version="1.0" encoding="utf-8"?>
<!-- Generator: Adobe Illustrator 17.1.0, SVG Export Plug-In . SVG Version: 6.00 Build 0)  -->
<!DOCTYPE svg PUBLIC "-//W3C//DTD SVG 1.1//EN" "http://www.w3.org/Graphics/SVG/1.1/DTD/svg11.dtd">
<svg version="1.1" xmlns="http://www.w3.org/2000/svg" xmlns:xlink="http://www.w3.org/1999/xlink" x="0px" y="0px" width="48px"
	 height="48px" viewBox="0 0 48 48" enable-background="new 0 0 48 48" xml:space="preserve">
<g id="Header">
	<g>
		<rect x="-838" y="-1336" fill="none" width="1400" height="3600"/>
	</g>
</g>
<g id="Label">
</g>
<g id="Icon">
	<g>
		<rect fill="none" width="48" height="48"/>
		<path d="M36,16h-2v-4c0-5.5-4.5-10-10-10c-5.5,0-10,4.5-10,10v4h-2c-2.2,0-4,1.8-4,4v20c0,2.2,1.8,4,4,4h24c2.2,0,4-1.8,4-4V20
			C40,17.8,38.2,16,36,16z M24,5.8c3.4,0,6.2,2.8,6.2,6.2v4H18v-4h-0.2C17.8,8.6,20.6,5.8,24,5.8z M36,40H12V20h24V40z M24,34
			c2.2,0,4-1.8,4-4s-1.8-4-4-4c-2.2,0-4,1.8-4,4S21.8,34,24,34z"/>
	</g>
</g>
<g id="Grid" display="none">
	<g display="inline">
		<line fill="none" stroke="#00E5FF" stroke-width="0.1" stroke-miterlimit="10" x1="42" y1="-1336" x2="42" y2="2216"/>
	</g>
</g>
</svg>
