<?xml version="1.0" encoding="utf-8"?>
<!-- Generator: Adobe Illustrator 17.1.0, SVG Export Plug-In . SVG Version: 6.00 Build 0)  -->
<!DOCTYPE svg PUBLIC "-//W3C//DTD SVG 1.1//EN" "http://www.w3.org/Graphics/SVG/1.1/DTD/svg11.dtd" [
	<!ENTITY ns_extend "http://ns.adobe.com/Extensibility/1.0/">
	<!ENTITY ns_ai "http://ns.adobe.com/AdobeIllustrator/10.0/">
	<!ENTITY ns_graphs "http://ns.adobe.com/Graphs/1.0/">
	<!ENTITY ns_vars "http://ns.adobe.com/Variables/1.0/">
	<!ENTITY ns_imrep "http://ns.adobe.com/ImageReplacement/1.0/">
	<!ENTITY ns_sfw "http://ns.adobe.com/SaveForWeb/1.0/">
	<!ENTITY ns_custom "http://ns.adobe.com/GenericCustomNamespace/1.0/">
	<!ENTITY ns_adobe_xpath "http://ns.adobe.com/XPath/1.0/">
]>
<svg version="1.1" xmlns:x="&ns_extend;" xmlns:i="&ns_ai;" xmlns:graph="&ns_graphs;"
	 xmlns="http://www.w3.org/2000/svg" xmlns:xlink="http://www.w3.org/1999/xlink" x="0px" y="0px" width="48px" height="48px"
	 viewBox="0 0 48 48" enable-background="new 0 0 48 48" xml:space="preserve">
<metadata>
	<sfw  xmlns="&ns_sfw;">
		<slices></slices>
		<sliceSourceBounds  width="1400" height="3600" y="-3112" x="-3" bottomLeftOrigin="true"></sliceSourceBounds>
	</sfw>
</metadata>
<g id="Header">
	<g>
		<rect x="-838" y="-824" fill="none" width="1400" height="3600"/>
	</g>
</g>
<g id="Label">
</g>
<g id="Icon">
	<g>
		<g>
			<rect fill="none" width="48" height="48"/>
		</g>
		<path d="M42.8,23.2l-18-18C24.1,4.4,23.1,4,22,4H8C5.8,4,4,5.8,4,8v14c0,1.1,0.4,2.1,1.2,2.8l18,18c0.7,0.7,1.7,1.2,2.8,1.2
			c1.1,0,2.1-0.4,2.8-1.2l14-14c0.7-0.7,1.2-1.7,1.2-2.8C44,24.9,43.5,23.9,42.8,23.2z M11,14c-1.7,0-3-1.3-3-3s1.3-3,3-3s3,1.3,3,3
			S12.7,14,11,14z M34.5,30.5L26,39.1l-8.5-8.5l0,0C16.6,29.6,16,28.4,16,27c0-2.8,2.2-5,5-5c1.4,0,2.6,0.6,3.5,1.5l1.5,1.5l1.5-1.5
			c0.9-0.9,2.2-1.5,3.5-1.5c2.8,0,5,2.2,5,5C36,28.4,35.4,29.6,34.5,30.5L34.5,30.5z"/>
	</g>
</g>
<g id="Grid" display="none">
	<g display="inline">
		<line fill="none" stroke="#00E5FF" stroke-width="0.1" stroke-miterlimit="10" x1="42" y1="-824" x2="42" y2="2728"/>
	</g>
</g>
</svg>
