<?xml version="1.0" encoding="utf-8"?>
<!-- Generator: Adobe Illustrator 17.1.0, SVG Export Plug-In . SVG Version: 6.00 Build 0)  -->
<!DOCTYPE svg PUBLIC "-//W3C//DTD SVG 1.1//EN" "http://www.w3.org/Graphics/SVG/1.1/DTD/svg11.dtd">
<svg version="1.1" xmlns="http://www.w3.org/2000/svg" xmlns:xlink="http://www.w3.org/1999/xlink" x="0px" y="0px" width="48px"
	 height="48px" viewBox="0 0 48 48" enable-background="new 0 0 48 48" xml:space="preserve">
<g id="Header">
	<g>
		<rect x="-838" y="-2232" fill="none" width="1400" height="3600"/>
	</g>
</g>
<g id="Label">
</g>
<g id="Icon">
	<g>
		<rect fill="none" width="48" height="48"/>
		<g>
			<path d="M34.4,18L25.7,4.9C25.3,4.3,24.6,4,24,4c-0.6,0-1.3,0.3-1.7,0.9L13.6,18H4c-1.1,0-2,0.9-2,2c0,0.2,0,0.4,0.1,0.5
				l5.1,18.5c0.5,1.7,2,2.9,3.9,2.9h26c1.8,0,3.4-1.2,3.9-2.9l5.1-18.5c0-0.2,0.1-0.4,0.1-0.5c0-1.1-0.9-2-2-2H34.4z M18,18l6-8.8
				l6,8.8H18z M24,34c-2.2,0-4-1.8-4-4s1.8-4,4-4c2.2,0,4,1.8,4,4S26.2,34,24,34z"/>
		</g>
	</g>
</g>
<g id="Grid" display="none">
	<g display="inline">
		<line fill="none" stroke="#00E5FF" stroke-width="0.1" stroke-miterlimit="10" x1="42" y1="-2232" x2="42" y2="1320"/>
	</g>
</g>
</svg>
