<?xml version="1.0" encoding="utf-8"?>
<!-- Generator: Adobe Illustrator 17.1.0, SVG Export Plug-In . SVG Version: 6.00 Build 0)  -->
<!DOCTYPE svg PUBLIC "-//W3C//DTD SVG 1.1//EN" "http://www.w3.org/Graphics/SVG/1.1/DTD/svg11.dtd" [
	<!ENTITY ns_extend "http://ns.adobe.com/Extensibility/1.0/">
	<!ENTITY ns_ai "http://ns.adobe.com/AdobeIllustrator/10.0/">
	<!ENTITY ns_graphs "http://ns.adobe.com/Graphs/1.0/">
	<!ENTITY ns_vars "http://ns.adobe.com/Variables/1.0/">
	<!ENTITY ns_imrep "http://ns.adobe.com/ImageReplacement/1.0/">
	<!ENTITY ns_sfw "http://ns.adobe.com/SaveForWeb/1.0/">
	<!ENTITY ns_custom "http://ns.adobe.com/GenericCustomNamespace/1.0/">
	<!ENTITY ns_adobe_xpath "http://ns.adobe.com/XPath/1.0/">
]>
<svg version="1.1" xmlns:x="&ns_extend;" xmlns:i="&ns_ai;" xmlns:graph="&ns_graphs;"
	 xmlns="http://www.w3.org/2000/svg" xmlns:xlink="http://www.w3.org/1999/xlink" x="0px" y="0px" width="48px" height="48px"
	 viewBox="0 0 48 48" enable-background="new 0 0 48 48" xml:space="preserve">
<metadata>
	<sfw  xmlns="&ns_sfw;">
		<slices></slices>
		<sliceSourceBounds  width="1400" height="3600" y="-3112" x="-3" bottomLeftOrigin="true"></sliceSourceBounds>
	</sfw>
</metadata>
<g id="Header">
	<rect x="-838" y="-3000" fill="none" width="1400" height="3600"/>
</g>
<g id="Label">
</g>
<g id="Icon">
	<g>
		<rect fill="none" width="48" height="48"/>
		<path d="M16,23c0-1.7-1.3-3-3-3s-3,1.3-3,3s1.3,3,3,3S16,24.7,16,23z M30,13c0-1.7-1.3-3-3-3h-6c-1.7,0-3,1.3-3,3s1.3,3,3,3h6
			C28.7,16,30,14.7,30,13z M17,30c-1.7,0-3,1.3-3,3s1.3,3,3,3s3-1.3,3-3S18.7,30,17,30z M24,2C11.9,2,2,11.9,2,24s9.9,22,22,22
			s22-9.9,22-22S36.1,2,24,2z M24,42c-9.9,0-18-8.1-18-18S14.1,6,24,6s18,8.1,18,18S33.9,42,24,42z M35,20c-1.7,0-3,1.3-3,3
			s1.3,3,3,3s3-1.3,3-3S36.7,20,35,20z M31,30c-1.7,0-3,1.3-3,3s1.3,3,3,3s3-1.3,3-3S32.7,30,31,30z"/>
	</g>
</g>
<g id="Grid" display="none">
	<g display="inline">
		<line fill="none" stroke="#00E5FF" stroke-width="0.1" stroke-miterlimit="10" x1="42" y1="-3000" x2="42" y2="552"/>
	</g>
</g>
</svg>
