<?xml version="1.0" encoding="utf-8"?>
<!-- Generator: Adobe Illustrator 17.1.0, SVG Export Plug-In . SVG Version: 6.00 Build 0)  -->
<!DOCTYPE svg PUBLIC "-//W3C//DTD SVG 1.1//EN" "http://www.w3.org/Graphics/SVG/1.1/DTD/svg11.dtd">
<svg version="1.1" xmlns="http://www.w3.org/2000/svg" xmlns:xlink="http://www.w3.org/1999/xlink" x="0px" y="0px" width="48px"
	 height="48px" viewBox="0 0 48 48" enable-background="new 0 0 48 48" xml:space="preserve">
<g id="Header">
	<g>
		<rect x="-838" y="-2104" fill="none" width="1400" height="3600"/>
	</g>
</g>
<g id="Label">
</g>
<g id="Icon">
	<g>
		<rect fill="none" width="48" height="48"/>
		<g>
			<path d="M38.9,26c0.1-0.6,0.1-1.3,0.1-2s-0.1-1.3-0.1-2l4.2-3.3c0.4-0.3,0.5-0.8,0.2-1.3l-4-6.9c-0.2-0.4-0.8-0.6-1.2-0.4l-5,2
				c-1-0.8-2.2-1.5-3.4-2L29,4.8C28.9,4.4,28.5,4,28,4h-8c-0.5,0-0.9,0.4-1,0.8l-0.8,5.3c-1.2,0.5-2.3,1.2-3.4,2l-5-2
				c-0.5-0.2-1,0-1.2,0.4l-4,6.9c-0.2,0.4-0.1,1,0.2,1.3L9.1,22C9.1,22.7,9,23.3,9,24s0.1,1.3,0.1,2l-4.2,3.3
				c-0.4,0.3-0.5,0.8-0.2,1.3l4,6.9c0.2,0.4,0.8,0.6,1.2,0.4l5-2c1,0.8,2.2,1.5,3.4,2l0.8,5.3c0.1,0.5,0.5,0.8,1,0.8h8
				c0.5,0,0.9-0.4,1-0.8l0.8-5.3c1.2-0.5,2.3-1.2,3.4-2l5,2c0.5,0.2,1,0,1.2-0.4l4-6.9c0.2-0.4,0.1-1-0.2-1.3L38.9,26z M24,31
				c-3.9,0-7-3.1-7-7s3.1-7,7-7s7,3.1,7,7S27.9,31,24,31z"/>
		</g>
	</g>
</g>
<g id="Grid" display="none">
	<g display="inline">
		<line fill="none" stroke="#00E5FF" stroke-width="0.1" stroke-miterlimit="10" x1="42" y1="-2104" x2="42" y2="1448"/>
	</g>
</g>
</svg>
