<?xml version="1.0" encoding="utf-8"?>
<!-- Generator: Adobe Illustrator 17.1.0, SVG Export Plug-In . SVG Version: 6.00 Build 0)  -->
<!DOCTYPE svg PUBLIC "-//W3C//DTD SVG 1.1//EN" "http://www.w3.org/Graphics/SVG/1.1/DTD/svg11.dtd" [
	<!ENTITY ns_extend "http://ns.adobe.com/Extensibility/1.0/">
	<!ENTITY ns_ai "http://ns.adobe.com/AdobeIllustrator/10.0/">
	<!ENTITY ns_graphs "http://ns.adobe.com/Graphs/1.0/">
	<!ENTITY ns_vars "http://ns.adobe.com/Variables/1.0/">
	<!ENTITY ns_imrep "http://ns.adobe.com/ImageReplacement/1.0/">
	<!ENTITY ns_sfw "http://ns.adobe.com/SaveForWeb/1.0/">
	<!ENTITY ns_custom "http://ns.adobe.com/GenericCustomNamespace/1.0/">
	<!ENTITY ns_adobe_xpath "http://ns.adobe.com/XPath/1.0/">
]>
<svg version="1.1" xmlns:x="&ns_extend;" xmlns:i="&ns_ai;" xmlns:graph="&ns_graphs;"
	 xmlns="http://www.w3.org/2000/svg" xmlns:xlink="http://www.w3.org/1999/xlink" x="0px" y="0px" width="24px" height="24px"
	 viewBox="0 0 24 24" enable-background="new 0 0 24 24" xml:space="preserve">
<metadata>
	<sfw  xmlns="&ns_sfw;">
		<slices></slices>
		<sliceSourceBounds  width="1400" height="3600" y="-3112" x="-3" bottomLeftOrigin="true"></sliceSourceBounds>
	</sfw>
</metadata>
<g id="Header">
	<rect x="-618" y="-2232" fill="none" width="1400" height="3600"/>
</g>
<g id="Label">
</g>
<g id="Icon">
	<g>
		<g>
			<g>
				<path d="M21,19H3V5h18V19z M21,3H3C1.9,3,1,3.9,1,5v14c0,1.1,0.9,2,2,2h18c1.1,0,2-0.9,2-2V5C23,3.9,22.1,3,21,3L21,3z"/>
			</g>
			<rect fill="none" width="24" height="24"/>
		</g>
		<path d="M10,12c0-1.1,0.9-2,2-2V8c0.3,0,0.7,0.1,1,0.1V6h-2v2.1c-0.4,0.1-0.7,0.2-1,0.4L8.5,7.1L7.1,8.5L8.6,10
			c-0.2,0.3-0.3,0.7-0.4,1H6v2h2.1c0.1,0.4,0.2,0.7,0.4,1l-1.5,1.5l1.4,1.4l1.5-1.5c0.3,0.2,0.7,0.3,1,0.4V18h2v-2.1
			c-0.3,0.1-0.7,0.1-1,0.1v-2C10.9,14,10,13.1,10,12z M15.4,10l1.5-1.5l-1.4-1.4L14,8.6C14.6,8.9,15.1,9.4,15.4,10z M14,15.4
			l1.5,1.5l1.4-1.4L15.4,14C15.1,14.6,14.6,15.1,14,15.4z M12,10v4c1.1,0,2-0.9,2-2C14,10.9,13.1,10,12,10z M15.9,11
			c0.1,0.3,0.1,0.7,0.1,1s-0.1,0.7-0.1,1H18v-2H15.9z"/>
	</g>
</g>
<g id="Grid" display="none">
	<g display="inline">
	</g>
</g>
</svg>
