<?xml version="1.0" encoding="utf-8"?>
<!-- Generator: Adobe Illustrator 17.1.0, SVG Export Plug-In . SVG Version: 6.00 Build 0)  -->
<!DOCTYPE svg PUBLIC "-//W3C//DTD SVG 1.1//EN" "http://www.w3.org/Graphics/SVG/1.1/DTD/svg11.dtd">
<svg version="1.1" xmlns="http://www.w3.org/2000/svg" xmlns:xlink="http://www.w3.org/1999/xlink" x="0px" y="0px" width="24px"
	 height="24px" viewBox="0 0 24 24" enable-background="new 0 0 24 24" xml:space="preserve">
<g id="Header">
	<g>
		<rect x="-618" y="-2232" fill="none" width="1400" height="3600"/>
	</g>
</g>
<g id="Label">
</g>
<g id="Icon">
	<g>
		<rect fill="none" width="24" height="24"/>
		<g>
			<path d="M17.2,9l-4.4-6.6C12.6,2.2,12.3,2,12,2c-0.3,0-0.6,0.1-0.8,0.4L6.8,9H2c-0.6,0-1,0.4-1,1c0,0.1,0,0.2,0,0.3l2.5,9.3
				c0.2,0.8,1,1.5,1.9,1.5h13c0.9,0,1.7-0.6,1.9-1.5l2.5-9.3c0-0.1,0-0.2,0-0.3c0-0.6-0.4-1-1-1H17.2z M9,9l3-4.4L15,9H9z M12,17
				c-1.1,0-2-0.9-2-2s0.9-2,2-2c1.1,0,2,0.9,2,2S13.1,17,12,17z"/>
		</g>
	</g>
</g>
<g id="Grid" display="none">
	<g display="inline">
	</g>
</g>
</svg>
