<?xml version="1.0" encoding="utf-8"?>
<!-- Generator: Adobe Illustrator 17.1.0, SVG Export Plug-In . SVG Version: 6.00 Build 0)  -->
<!DOCTYPE svg PUBLIC "-//W3C//DTD SVG 1.1//EN" "http://www.w3.org/Graphics/SVG/1.1/DTD/svg11.dtd">
<svg version="1.1" xmlns="http://www.w3.org/2000/svg" xmlns:xlink="http://www.w3.org/1999/xlink" x="0px" y="0px" width="48px"
	 height="48px" viewBox="0 0 48 48" enable-background="new 0 0 48 48" xml:space="preserve">
<g id="Header">
	<rect x="-838" y="-696" fill="none" width="1400" height="3600"/>
</g>
<g id="Label">
</g>
<g id="Icon">
	<g>
		<g>
			<g>
				<rect fill="none" width="48" height="48"/>
			</g>
			<path d="M22,48h4v-4h-4V48z M14,48h4v-4h-4V48z M30,48h4v-4h-4V48z M35.4,11.4L24,0h-2v15.2L12.8,6L10,8.8L21.2,20L10,31.2
				l2.8,2.8l9.2-9.2V40h2l11.4-11.4L26.8,20L35.4,11.4z M26,7.7l3.8,3.8L26,15.2V7.7z M29.8,28.6L26,32.3v-7.5L29.8,28.6z"/>
		</g>
	</g>
</g>
<g id="Grid" display="none">
	<g display="inline">
		<line fill="none" stroke="#00E5FF" stroke-width="0.1" stroke-miterlimit="10" x1="42" y1="-696" x2="42" y2="2856"/>
	</g>
</g>
</svg>
