<?xml version="1.0" encoding="utf-8"?>
<!-- Generator: Adobe Illustrator 17.1.0, SVG Export Plug-In . SVG Version: 6.00 Build 0)  -->
<!DOCTYPE svg PUBLIC "-//W3C//DTD SVG 1.1//EN" "http://www.w3.org/Graphics/SVG/1.1/DTD/svg11.dtd">
<svg version="1.1" xmlns="http://www.w3.org/2000/svg" xmlns:xlink="http://www.w3.org/1999/xlink" x="0px" y="0px" width="48px"
	 height="48px" viewBox="0 0 48 48" enable-background="new 0 0 48 48" xml:space="preserve">
<g id="Header">
	<rect x="-838" y="-824" fill="none" width="1400" height="3600"/>
</g>
<g id="Label">
</g>
<g id="Icon">
	<g>
		<rect fill="none" width="48" height="48"/>
		<path d="M14,48h4v-4h-4V48z M22,48h4v-4h-4V48z M26,4h-4v20h4V4z M33.1,8.9l-2.9,2.9C33.7,13.9,36,17.7,36,22c0,6.6-5.4,12-12,12
			c-6.6,0-12-5.4-12-12c0-4.3,2.3-8.1,5.8-10.2l-2.9-2.9C10.7,11.8,8,16.6,8,22c0,8.8,7.2,16,16,16c8.8,0,16-7.2,16-16
			C40,16.6,37.3,11.8,33.1,8.9z M30,48h4v-4h-4V48z"/>
	</g>
</g>
<g id="Grid" display="none">
	<g display="inline">
		<line fill="none" stroke="#00E5FF" stroke-width="0.1" stroke-miterlimit="10" x1="42" y1="-824" x2="42" y2="2728"/>
	</g>
</g>
</svg>
