<?xml version="1.0" encoding="utf-8"?>
<!-- Generator: Adobe Illustrator 17.1.0, SVG Export Plug-In . SVG Version: 6.00 Build 0)  -->
<!DOCTYPE svg PUBLIC "-//W3C//DTD SVG 1.1//EN" "http://www.w3.org/Graphics/SVG/1.1/DTD/svg11.dtd">
<svg version="1.1" xmlns="http://www.w3.org/2000/svg" xmlns:xlink="http://www.w3.org/1999/xlink" x="0px" y="0px" width="48px"
	 height="48px" viewBox="0 0 48 48" enable-background="new 0 0 48 48" xml:space="preserve">
<g id="Header">
	<g>
		<rect x="-838" y="-2744" fill="none" width="1400" height="3600"/>
	</g>
</g>
<g id="Label">
</g>
<g id="Icon">
	<g>
		<rect y="0" fill="none" width="48" height="48"/>
		<path d="M24,20c-2.2,0-4,1.8-4,4s1.8,4,4,4s4-1.8,4-4S26.2,20,24,20z M38,6H10c-2.2,0-4,1.8-4,4v28c0,2.2,1.8,4,4,4h28
			c2.2,0,4-1.8,4-4V10C42,7.8,40.2,6,38,6z M34.5,24c0,0.5,0,0.9-0.1,1.4l3,2.3c0.3,0.2,0.3,0.6,0.2,0.9l-2.8,4.8
			c-0.2,0.3-0.5,0.4-0.9,0.3l-3.5-1.4c-0.7,0.6-1.5,1-2.4,1.4l-0.5,3.7c-0.1,0.3-0.3,0.6-0.7,0.6h-5.6c-0.3,0-0.6-0.3-0.7-0.6
			L20,33.7c-0.9-0.4-1.6-0.8-2.4-1.4l-3.5,1.4c-0.3,0.1-0.7,0-0.9-0.3l-2.8-4.8c-0.2-0.3-0.1-0.7,0.2-0.9l3-2.3
			c-0.1-0.4-0.1-0.9-0.1-1.4s0-0.9,0.1-1.4l-3-2.3c-0.3-0.2-0.3-0.6-0.2-0.9l2.8-4.8c0.2-0.3,0.5-0.4,0.9-0.3l3.5,1.4
			c0.7-0.6,1.5-1,2.4-1.4l0.5-3.7c0.1-0.3,0.3-0.6,0.7-0.6h5.6c0.3,0,0.6,0.3,0.7,0.6l0.5,3.7c0.9,0.4,1.6,0.8,2.4,1.4l3.5-1.4
			c0.3-0.1,0.7,0,0.9,0.3l2.8,4.8c0.2,0.3,0.1,0.7-0.2,0.9l-3,2.3C34.5,23.1,34.5,23.5,34.5,24z"/>
	</g>
</g>
<g id="Grid" display="none">
	<g display="inline">
		<line fill="none" stroke="#00E5FF" stroke-width="0.1" stroke-miterlimit="10" x1="42" y1="-2744" x2="42" y2="808"/>
	</g>
</g>
</svg>
