<?xml version="1.0" encoding="utf-8"?>
<!-- Generator: Adobe Illustrator 17.1.0, SVG Export Plug-In . SVG Version: 6.00 Build 0)  -->
<!DOCTYPE svg PUBLIC "-//W3C//DTD SVG 1.1//EN" "http://www.w3.org/Graphics/SVG/1.1/DTD/svg11.dtd">
<svg version="1.1" xmlns="http://www.w3.org/2000/svg" xmlns:xlink="http://www.w3.org/1999/xlink" x="0px" y="0px" width="24px"
	 height="24px" viewBox="0 0 24 24" enable-background="new 0 0 24 24" xml:space="preserve">
<g id="Header">
	<rect x="-618" y="-952" fill="none" width="1400" height="3600"/>
</g>
<g id="Label">
</g>
<g id="Icon">
	<g>
		<path d="M7,24h2v-2H7V24z M12,13c1.7,0,3-1.3,3-3l0-6c0-1.7-1.3-3-3-3c-1.7,0-3,1.3-3,3v6C9,11.7,10.3,13,12,13z M11,24h2v-2h-2
			V24z M15,24h2v-2h-2V24z M19,10h-1.7c0,3-2.5,5.1-5.3,5.1c-2.8,0-5.3-2.1-5.3-5.1H5c0,3.4,2.7,6.2,6,6.7V20h2v-3.3
			C16.3,16.2,19,13.4,19,10z"/>
		<rect fill="none" width="24" height="24"/>
	</g>
</g>
<g id="Grid" display="none">
	<g display="inline">
	</g>
</g>
</svg>
