<?xml version="1.0" encoding="utf-8"?>
<!-- Generator: Adobe Illustrator 17.1.0, SVG Export Plug-In . SVG Version: 6.00 Build 0)  -->
<!DOCTYPE svg PUBLIC "-//W3C//DTD SVG 1.1//EN" "http://www.w3.org/Graphics/SVG/1.1/DTD/svg11.dtd">
<svg version="1.1" xmlns="http://www.w3.org/2000/svg" xmlns:xlink="http://www.w3.org/1999/xlink" x="0px" y="0px" width="24px"
	 height="24px" viewBox="0 0 24 24" enable-background="new 0 0 24 24" xml:space="preserve">
<g id="Header">
	<rect x="-618" y="-824" fill="none" width="1400" height="3600"/>
</g>
<g id="Label">
</g>
<g id="Icon">
	<g>
		<rect fill="none" width="24" height="24"/>
		<path d="M7,24h2v-2H7V24z M11,24h2v-2h-2V24z M13,2h-2v10h2V2z M16.6,4.4l-1.4,1.4C16.8,6.9,18,8.8,18,11c0,3.3-2.7,6-6,6
			c-3.3,0-6-2.7-6-6c0-2.2,1.2-4.1,2.9-5.1L7.4,4.4C5.4,5.9,4,8.3,4,11c0,4.4,3.6,8,8,8c4.4,0,8-3.6,8-8C20,8.3,18.6,5.9,16.6,4.4z
			 M15,24h2v-2h-2V24z"/>
	</g>
</g>
<g id="Grid" display="none">
	<g display="inline">
	</g>
</g>
</svg>
