<?xml version="1.0" encoding="utf-8"?>
<!-- Generator: Adobe Illustrator 17.1.0, SVG Export Plug-In . SVG Version: 6.00 Build 0)  -->
<!DOCTYPE svg PUBLIC "-//W3C//DTD SVG 1.1//EN" "http://www.w3.org/Graphics/SVG/1.1/DTD/svg11.dtd">
<svg version="1.1" xmlns="http://www.w3.org/2000/svg" xmlns:xlink="http://www.w3.org/1999/xlink" x="0px" y="0px" width="24px"
	 height="24px" viewBox="0 0 24 24" enable-background="new 0 0 24 24" xml:space="preserve">
<g id="Header">
	<g>
		<rect x="-618" y="-2744" fill="none" width="1400" height="3600"/>
	</g>
</g>
<g id="Label">
</g>
<g id="Icon">
	<g>
		<rect y="0" fill="none" width="24" height="24"/>
		<path d="M12,10c-1.1,0-2,0.9-2,2s0.9,2,2,2s2-0.9,2-2S13.1,10,12,10z M19,3H5C3.9,3,3,3.9,3,5v14c0,1.1,0.9,2,2,2h14
			c1.1,0,2-0.9,2-2V5C21,3.9,20.1,3,19,3z M17.2,12c0,0.2,0,0.5,0,0.7l1.5,1.2c0.1,0.1,0.2,0.3,0.1,0.4l-1.4,2.4
			c-0.1,0.2-0.3,0.2-0.4,0.2l-1.7-0.7c-0.4,0.3-0.8,0.5-1.2,0.7l-0.3,1.9c0,0.2-0.2,0.3-0.3,0.3h-2.8c-0.2,0-0.3-0.1-0.3-0.3
			L10,16.9c-0.4-0.2-0.8-0.4-1.2-0.7l-1.7,0.7c-0.2,0.1-0.3,0-0.4-0.2l-1.4-2.4c-0.1-0.2,0-0.3,0.1-0.4l1.5-1.2c0-0.2,0-0.5,0-0.7
			s0-0.5,0-0.7l-1.5-1.2c-0.1-0.1-0.2-0.3-0.1-0.4l1.4-2.4c0.1-0.2,0.3-0.2,0.4-0.2l1.7,0.7C9.2,7.6,9.6,7.3,10,7.1l0.3-1.9
			c0-0.2,0.2-0.3,0.3-0.3h2.8c0.2,0,0.3,0.1,0.3,0.3L14,7.1c0.4,0.2,0.8,0.4,1.2,0.7l1.7-0.7c0.2-0.1,0.3,0,0.4,0.2l1.4,2.4
			c0.1,0.2,0,0.3-0.1,0.4l-1.5,1.2C17.2,11.5,17.2,11.8,17.2,12z"/>
	</g>
</g>
<g id="Grid" display="none">
	<g display="inline">
	</g>
</g>
</svg>
