<?xml version="1.0" encoding="utf-8"?>
<!-- Generator: Adobe Illustrator 17.1.0, SVG Export Plug-In . SVG Version: 6.00 Build 0)  -->
<!DOCTYPE svg PUBLIC "-//W3C//DTD SVG 1.1//EN" "http://www.w3.org/Graphics/SVG/1.1/DTD/svg11.dtd">
<svg version="1.1" xmlns="http://www.w3.org/2000/svg" xmlns:xlink="http://www.w3.org/1999/xlink" x="0px" y="0px" width="24px"
	 height="24px" viewBox="0 0 24 24" enable-background="new 0 0 24 24" xml:space="preserve">
<g id="Header">
	<rect x="-618" y="-1208" fill="none" width="1400" height="3600"/>
</g>
<g id="Label">
</g>
<g id="Icon">
	<g>
		<rect y="0" fill="none" width="24" height="24"/>
		<path d="M13,9h-2v2h2V9z M17,9h-2v2h2V9z M20,15.5c-1.2,0-2.4-0.2-3.6-0.6c-0.3-0.1-0.7,0-1,0.2l-2.2,2.2
			c-2.8-1.4-5.1-3.8-6.6-6.6l2.2-2.2c0.3-0.3,0.4-0.7,0.2-1C8.7,6.4,8.5,5.2,8.5,4c0-0.6-0.4-1-1-1H4C3.4,3,3,3.4,3,4
			c0,9.4,7.6,17,17,17c0.6,0,1-0.4,1-1v-3.5C21,15.9,20.6,15.5,20,15.5z M19,9v2h2V9H19z"/>
	</g>
</g>
<g id="Grid" display="none">
	<g display="inline">
	</g>
</g>
</svg>
