<?xml version="1.0" encoding="utf-8"?>
<!-- Generator: Adobe Illustrator 17.1.0, SVG Export Plug-In . SVG Version: 6.00 Build 0)  -->
<!DOCTYPE svg PUBLIC "-//W3C//DTD SVG 1.1//EN" "http://www.w3.org/Graphics/SVG/1.1/DTD/svg11.dtd">
<svg version="1.1" xmlns="http://www.w3.org/2000/svg" xmlns:xlink="http://www.w3.org/1999/xlink" x="0px" y="0px" width="48px"
	 height="48px" viewBox="0 0 48 48" enable-background="new 0 0 48 48" xml:space="preserve">
<g id="Header">
	<g>
		<rect x="-838" y="-3256" fill="none" width="1400" height="3600"/>
	</g>
</g>
<g id="Label">
</g>
<g id="Icon">
	<g>
		<rect x="0" y="0" fill="none" width="48" height="48"/>
		<path d="M2,42h8V18H2V42z M46,20c0-2.2-1.8-4-4-4H29.4l1.9-9.1c0-0.2,0.1-0.4,0.1-0.6c0-0.8-0.3-1.6-0.9-2.1L28.3,2L15.2,15.2
			C14.4,15.9,14,16.9,14,18v20c0,2.2,1.8,4,4,4h18c1.7,0,3.1-1,3.7-2.4l6-14.1C45.9,25,46,24.5,46,24v-3.8l0,0
			C46,20.1,46,20.1,46,20z"/>
	</g>
</g>
<g id="Grid" display="none">
	<g display="inline">
		<line fill="none" stroke="#00E5FF" stroke-width="0.1" stroke-miterlimit="10" x1="42" y1="-3256" x2="42" y2="296"/>
	</g>
</g>
</svg>
