<?xml version="1.0" encoding="utf-8"?>
<!-- Generator: Adobe Illustrator 17.1.0, SVG Export Plug-In . SVG Version: 6.00 Build 0)  -->
<!DOCTYPE svg PUBLIC "-//W3C//DTD SVG 1.1//EN" "http://www.w3.org/Graphics/SVG/1.1/DTD/svg11.dtd">
<svg version="1.1" xmlns="http://www.w3.org/2000/svg" xmlns:xlink="http://www.w3.org/1999/xlink" x="0px" y="0px" width="48px"
	 height="48px" viewBox="0 0 48 48" enable-background="new 0 0 48 48" xml:space="preserve">
<g id="Header">
	<g>
		<rect x="-838" y="-3128" fill="none" width="1400" height="3600"/>
	</g>
</g>
<g id="Label">
</g>
<g id="Icon">
	<g>
		<rect fill="none" width="48" height="48"/>
		<path d="M30,6H12c-1.7,0-3.1,1-3.7,2.4l-6,14.1C2.1,23,2,23.5,2,24v3.8l0,0c0,0.1,0,0.1,0,0.2c0,2.2,1.8,4,4,4h12.6l-1.9,9.1
			c0,0.2-0.1,0.4-0.1,0.6c0,0.8,0.3,1.6,0.9,2.1l2.1,2.1l13.2-13.2c0.7-0.7,1.2-1.7,1.2-2.8V10C34,7.8,32.2,6,30,6z M38,6v24h8V6H38
			z"/>
	</g>
</g>
<g id="Grid" display="none">
	<g display="inline">
		<line fill="none" stroke="#00E5FF" stroke-width="0.1" stroke-miterlimit="10" x1="42" y1="-3128" x2="42" y2="424"/>
	</g>
</g>
</svg>
