<?xml version="1.0" encoding="utf-8"?>
<!-- Generator: Adobe Illustrator 17.1.0, SVG Export Plug-In . SVG Version: 6.00 Build 0)  -->
<!DOCTYPE svg PUBLIC "-//W3C//DTD SVG 1.1//EN" "http://www.w3.org/Graphics/SVG/1.1/DTD/svg11.dtd">
<svg version="1.1" xmlns="http://www.w3.org/2000/svg" xmlns:xlink="http://www.w3.org/1999/xlink" x="0px" y="0px" width="24px"
	 height="24px" viewBox="0 0 24 24" enable-background="new 0 0 24 24" xml:space="preserve">
<g id="Header">
	<g>
		<rect x="-618" y="-1720" fill="none" width="1400" height="3600"/>
	</g>
</g>
<g id="Label">
</g>
<g id="Icon">
	<g>
		<rect fill="none" width="24" height="24"/>
		<rect fill="none" width="24" height="24"/>
		<rect x="0" fill="none" width="24" height="24"/>
		<rect x="0" fill="none" width="24" height="24"/>
		<path d="M12,7c2.8,0,5,2.2,5,5c0,0.6-0.1,1.3-0.4,1.8l2.9,2.9c1.5-1.3,2.7-2.9,3.4-4.7c-1.7-4.4-6-7.5-11-7.5
			c-1.4,0-2.7,0.3-4,0.7l2.2,2.2C10.7,7.1,11.4,7,12,7z M2,4.3l2.3,2.3L4.7,7c-1.7,1.3-3,3-3.7,5c1.7,4.4,6,7.5,11,7.5
			c1.5,0,3-0.3,4.4-0.8l0.4,0.4l2.9,2.9l1.3-1.3L3.3,3L2,4.3z M7.5,9.8l1.5,1.5C9,11.6,9,11.8,9,12c0,1.7,1.3,3,3,3
			c0.2,0,0.4,0,0.7-0.1l1.5,1.5C13.5,16.8,12.8,17,12,17c-2.8,0-5-2.2-5-5C7,11.2,7.2,10.5,7.5,9.8z M11.8,9l3.1,3.1
			c0-0.1,0-0.1,0-0.2c0-1.7-1.3-3-3-3C11.9,9,11.9,9,11.8,9z"/>
	</g>
</g>
<g id="Grid" display="none">
	<g display="inline">
	</g>
</g>
</svg>
