<?xml version="1.0" encoding="utf-8"?>
<!-- Generator: Adobe Illustrator 17.1.0, SVG Export Plug-In . SVG Version: 6.00 Build 0)  -->
<!DOCTYPE svg PUBLIC "-//W3C//DTD SVG 1.1//EN" "http://www.w3.org/Graphics/SVG/1.1/DTD/svg11.dtd">
<svg version="1.1" xmlns="http://www.w3.org/2000/svg" xmlns:xlink="http://www.w3.org/1999/xlink" x="0px" y="0px" width="48px"
	 height="48px" viewBox="0 0 48 48" enable-background="new 0 0 48 48" xml:space="preserve">
<g id="Header">
	<g>
		<rect x="-838" y="-1592" fill="none" width="1400" height="3600"/>
	</g>
</g>
<g id="Label">
</g>
<g id="Icon">
	<g>
		<rect fill="none" width="48" height="48"/>
		<path d="M24,9C14,9,5.5,15.2,2,24c3.5,8.8,12,15,22,15c10,0,18.5-6.2,22-15C42.5,15.2,34,9,24,9z M24,34c-5.5,0-10-4.5-10-10
			s4.5-10,10-10c5.5,0,10,4.5,10,10S29.5,34,24,34z M24,18c-3.3,0-6,2.7-6,6s2.7,6,6,6c3.3,0,6-2.7,6-6S27.3,18,24,18z"/>
	</g>
</g>
<g id="Grid" display="none">
	<g display="inline">
		<line fill="none" stroke="#00E5FF" stroke-width="0.1" stroke-miterlimit="10" x1="42" y1="-1592" x2="42" y2="1960"/>
	</g>
</g>
</svg>
