<?xml version="1.0" encoding="utf-8"?>
<!-- Generator: Adobe Illustrator 17.1.0, SVG Export Plug-In . SVG Version: 6.00 Build 0)  -->
<!DOCTYPE svg PUBLIC "-//W3C//DTD SVG 1.1//EN" "http://www.w3.org/Graphics/SVG/1.1/DTD/svg11.dtd">
<svg version="1.1" xmlns="http://www.w3.org/2000/svg" xmlns:xlink="http://www.w3.org/1999/xlink" x="0px" y="0px" width="48px"
	 height="48px" viewBox="0 0 48 48" enable-background="new 0 0 48 48" xml:space="preserve">
<g id="Header">
	<g>
		<rect x="-838" y="-1720" fill="none" width="1400" height="3600"/>
	</g>
</g>
<g id="Label">
</g>
<g id="Icon">
	<g>
		<rect fill="none" width="48" height="48"/>
		<rect fill="none" width="48" height="48"/>
		<rect x="0" fill="none" width="48" height="48"/>
		<rect x="0" fill="none" width="48" height="48"/>
		<path d="M24,14c5.5,0,10,4.5,10,10c0,1.3-0.3,2.5-0.7,3.7l5.8,5.8c3-2.5,5.4-5.8,6.9-9.5C42.5,15.2,34,9,24,9
			c-2.8,0-5.5,0.5-8,1.4l4.3,4.3C21.5,14.3,22.7,14,24,14z M4,8.5l4.6,4.6L9.5,14C6.2,16.6,3.6,20,2,24c3.5,8.8,12,15,22,15
			c3.1,0,6.1-0.6,8.8-1.7l0.8,0.8l5.8,5.8l2.5-2.5L6.5,6L4,8.5z M15.1,19.6l3.1,3.1C18.1,23.1,18,23.6,18,24c0,3.3,2.7,6,6,6
			c0.4,0,0.9-0.1,1.3-0.2l3.1,3.1C27.1,33.6,25.6,34,24,34c-5.5,0-10-4.5-10-10C14,22.4,14.4,20.9,15.1,19.6z M23.7,18l6.3,6.3
			c0-0.1,0-0.2,0-0.3c0-3.3-2.7-6-6-6C23.9,18,23.8,18,23.7,18z"/>
	</g>
</g>
<g id="Grid" display="none">
	<g display="inline">
		<line fill="none" stroke="#00E5FF" stroke-width="0.1" stroke-miterlimit="10" x1="42" y1="-1720" x2="42" y2="1832"/>
	</g>
</g>
</svg>
