<?xml version="1.0" encoding="utf-8"?>
<!-- Generator: Adobe Illustrator 17.1.0, SVG Export Plug-In . SVG Version: 6.00 Build 0)  -->
<!DOCTYPE svg PUBLIC "-//W3C//DTD SVG 1.1//EN" "http://www.w3.org/Graphics/SVG/1.1/DTD/svg11.dtd">
<svg version="1.1" xmlns="http://www.w3.org/2000/svg" xmlns:xlink="http://www.w3.org/1999/xlink" x="0px" y="0px" width="18px"
	 height="18px" viewBox="0 0 18 18" enable-background="new 0 0 18 18" xml:space="preserve">
<g id="Header">
	<g>
		<rect x="-520" y="-1848" fill="none" width="1400" height="3600"/>
	</g>
</g>
<g id="Labels">
</g>
<g id="Icon">
	<g>
		<rect fill="none" width="18" height="18"/>
		<path d="M13,6c0-0.6-0.4-1-1-1s-1,0.4-1,1c0,0.6,0.4,1,1,1S13,6.6,13,6z M8.3,12.9l-1.8-2.1L4,14h10l-3.2-4.3L8.3,12.9z M3,3h5V1
			H3C1.9,1,1,1.9,1,3v5h2V3z M15,15h-5v2h5c1.1,0,2-0.9,2-2v-5h-2V15z M3,10H1v5c0,1.1,0.9,2,2,2h5v-2H3V10z M15,1h-5v2h5v5h2V3
			C17,1.9,16.1,1,15,1z"/>
	</g>
</g>
<g id="Grid" display="none">
	<g display="inline">
		<line fill="none" stroke="#00E5FF" stroke-width="0.1" stroke-miterlimit="10" x1="0" y1="-1848" x2="0" y2="1704"/>
	</g>
</g>
</svg>
