<?xml version="1.0" encoding="utf-8"?>
<!-- Generator: Adobe Illustrator 17.1.0, SVG Export Plug-In . SVG Version: 6.00 Build 0)  -->
<!DOCTYPE svg PUBLIC "-//W3C//DTD SVG 1.1//EN" "http://www.w3.org/Graphics/SVG/1.1/DTD/svg11.dtd">
<svg version="1.1" id="Layer_1" xmlns="http://www.w3.org/2000/svg" xmlns:xlink="http://www.w3.org/1999/xlink" x="0px" y="0px"
	 viewBox="42 42 24 24" enable-background="new 42 42 24 24" xml:space="preserve">
<g>
	<rect x="42" y="42" fill="none" width="24" height="24"/>
	<g>
		<path fill="#231F20" d="M62,49.3c0-0.7-0.6-1.3-1.3-1.3H47.3c-0.7,0-1.3,0.6-1.3,1.3H62L62,49.3z"/>
		<path fill="#231F20" d="M62,50.7H46c-0.7,0-1.3,0.6-1.3,1.3v6.7c0,0.7,0.6,1.3,1.3,1.3h16c0.7,0,1.3-0.6,1.3-1.3V52
			C63.3,51.3,62.7,50.7,62,50.7z M62,58.7H46V52h16V58.7z"/>
	</g>
</g>
<g>
	<rect x="-636" y="-1192" fill="none" width="1400" height="1800"/>
</g>
</svg>
