<?xml version="1.0" encoding="utf-8"?>
<!-- Generator: Adobe Illustrator 17.1.0, SVG Export Plug-In . SVG Version: 6.00 Build 0)  -->
<!DOCTYPE svg PUBLIC "-//W3C//DTD SVG 1.1//EN" "http://www.w3.org/Graphics/SVG/1.1/DTD/svg11.dtd">
<svg version="1.1" id="Layer_1" xmlns="http://www.w3.org/2000/svg" xmlns:xlink="http://www.w3.org/1999/xlink" x="0px" y="0px"
	 width="36px" height="36px" viewBox="0 0 36 36" enable-background="new 0 0 36 36" xml:space="preserve">
<g>
	<rect fill="none" width="36" height="36"/>
	<g>
		<path fill="#231F20" d="M30,11c0-1.1-0.9-2-2-2H8c-1.1,0-2,0.9-2,2L30,11L30,11z"/>
		<path fill="#231F20" d="M30,13H6c-1.1,0-2,0.9-2,2v10c0,1.1,0.9,2,2,2h24c1.1,0,2-0.9,2-2V15C32,13.9,31.1,13,30,13z M30,25H6V15
			h24V25z"/>
	</g>
</g>
<g>
	<rect x="-520" y="-1192" fill="none" width="1400" height="1800"/>
</g>
</svg>
