<?xml version="1.0" encoding="utf-8"?>
<!-- Generator: Adobe Illustrator 17.1.0, SVG Export Plug-In . SVG Version: 6.00 Build 0)  -->
<!DOCTYPE svg PUBLIC "-//W3C//DTD SVG 1.1//EN" "http://www.w3.org/Graphics/SVG/1.1/DTD/svg11.dtd">
<svg version="1.1" xmlns="http://www.w3.org/2000/svg" xmlns:xlink="http://www.w3.org/1999/xlink" x="0px" y="0px" width="18px"
	 height="18px" viewBox="0 0 18 18" enable-background="new 0 0 18 18" xml:space="preserve">
<g id="Header">
	<g>
		<rect x="-520" y="-2488" fill="none" width="1400" height="3600"/>
	</g>
</g>
<g id="Labels">
</g>
<g id="Icon">
	<g>
		<path fill="#231F20" d="M9,1C5.6,1,2.5,2.1,0,4l9,12l9-12C15.5,2.1,12.4,1,9,1z M9,7C7.5,7,6.1,7.4,4.9,8L2.1,4.4
			C4.2,3.1,6.6,2.5,9,2.5c2.4,0,4.8,0.6,6.9,1.9L13.1,8C11.9,7.4,10.5,7,9,7z"/>
		<rect fill="none" width="18" height="18"/>
	</g>
</g>
<g id="Grid" display="none">
	<g display="inline">
		<line fill="none" stroke="#00E5FF" stroke-width="0.1" stroke-miterlimit="10" x1="0" y1="-2488" x2="0" y2="1064"/>
	</g>
</g>
</svg>
