<?xml version="1.0" encoding="utf-8"?>
<!-- Generator: Adobe Illustrator 17.1.0, SVG Export Plug-In . SVG Version: 6.00 Build 0)  -->
<!DOCTYPE svg PUBLIC "-//W3C//DTD SVG 1.1//EN" "http://www.w3.org/Graphics/SVG/1.1/DTD/svg11.dtd">
<svg version="1.1" id="Layer_1" xmlns="http://www.w3.org/2000/svg" xmlns:xlink="http://www.w3.org/1999/xlink" x="0px" y="0px"
	 viewBox="30 30 48 48" enable-background="new 30 30 48 48" xml:space="preserve">
<g>
	<rect x="30" y="30" fill="none" width="48" height="48"/>
	<path d="M54,46c1.5,0,2.7-1.2,2.7-2.7c0-1.5-1.2-2.7-2.7-2.7s-2.7,1.2-2.7,2.7C51.3,44.8,52.5,46,54,46z M54,51.3
		c-1.5,0-2.7,1.2-2.7,2.7s1.2,2.7,2.7,2.7s2.7-1.2,2.7-2.7S55.5,51.3,54,51.3z M54,62c-1.5,0-2.7,1.2-2.7,2.7s1.2,2.7,2.7,2.7
		s2.7-1.2,2.7-2.7S55.5,62,54,62z"/>
</g>
<g>
	<rect x="-636" y="-1004" fill="none" width="1400" height="1800"/>
</g>
</svg>
