<?xml version="1.0" encoding="utf-8"?>
<!-- Generator: Adobe Illustrator 17.1.0, SVG Export Plug-In . SVG Version: 6.00 Build 0)  -->
<!DOCTYPE svg PUBLIC "-//W3C//DTD SVG 1.1//EN" "http://www.w3.org/Graphics/SVG/1.1/DTD/svg11.dtd">
<svg version="1.1" id="Layer_1" xmlns="http://www.w3.org/2000/svg" xmlns:xlink="http://www.w3.org/1999/xlink" x="0px" y="0px"
	 viewBox="30 30 48 48" enable-background="new 30 30 48 48" xml:space="preserve">
<g>
	<rect x="30" y="30" fill="none" width="48" height="48"/>
	<g>
		<path fill="#231F20" d="M70,44.7c0-1.5-1.2-2.7-2.7-2.7H40.7c-1.5,0-2.7,1.2-2.7,2.7H70L70,44.7z"/>
		<path fill="#231F20" d="M70,47.3H38c-1.5,0-2.7,1.2-2.7,2.7v13.3c0,1.5,1.2,2.7,2.7,2.7h32c1.5,0,2.7-1.2,2.7-2.7V50
			C72.7,48.5,71.5,47.3,70,47.3z M70,63.3H38V50h32V63.3z"/>
	</g>
</g>
<g>
	<rect x="-636" y="-1192" fill="none" width="1400" height="1800"/>
</g>
</svg>
