<?xml version="1.0" encoding="utf-8"?>
<!-- Generator: Adobe Illustrator 17.1.0, SVG Export Plug-In . SVG Version: 6.00 Build 0)  -->
<!DOCTYPE svg PUBLIC "-//W3C//DTD SVG 1.1//EN" "http://www.w3.org/Graphics/SVG/1.1/DTD/svg11.dtd">
<svg version="1.1" id="Layer_1" xmlns="http://www.w3.org/2000/svg" xmlns:xlink="http://www.w3.org/1999/xlink" x="0px" y="0px"
	 width="36px" height="36px" viewBox="0 0 36 36" enable-background="new 0 0 36 36" xml:space="preserve">
<g>
	<rect fill="none" width="36" height="36"/>
	<path d="M18,12c1.1,0,2-0.9,2-2s-0.9-2-2-2s-2,0.9-2,2S16.9,12,18,12z M18,16c-1.1,0-2,0.9-2,2s0.9,2,2,2s2-0.9,2-2S19.1,16,18,16z
		 M18,24c-1.1,0-2,0.9-2,2s0.9,2,2,2s2-0.9,2-2S19.1,24,18,24z"/>
</g>
<g>
	<rect x="-520" y="-1004" fill="none" width="1400" height="1800"/>
</g>
</svg>
