<?xml version="1.0" encoding="utf-8"?>
<!-- Generator: Adobe Illustrator 17.1.0, SVG Export Plug-In . SVG Version: 6.00 Build 0)  -->
<!DOCTYPE svg PUBLIC "-//W3C//DTD SVG 1.1//EN" "http://www.w3.org/Graphics/SVG/1.1/DTD/svg11.dtd">
<svg version="1.1" xmlns="http://www.w3.org/2000/svg" xmlns:xlink="http://www.w3.org/1999/xlink" x="0px" y="0px" width="18px"
	 height="18px" viewBox="0 0 18 18" enable-background="new 0 0 18 18" xml:space="preserve">
<g id="Header">
	<g>
		<rect x="-520" y="-1848" fill="none" width="1400" height="3600"/>
	</g>
</g>
<g id="Label">
</g>
<g id="Icon">
	<g>
		<rect fill="none" width="18" height="18"/>
		<path d="M1.5,9c0-1.9,1.6-3.5,3.5-3.5h3V4H5C2.2,4,0,6.2,0,9s2.2,5,5,5h3v-1.5H5C3.1,12.5,1.5,10.9,1.5,9z M5,10h8V8H5V10z M13,4
			h-3v1.5h3c1.9,0,3.5,1.6,3.5,3.5s-1.6,3.5-3.5,3.5h-3V14h3c2.8,0,5-2.2,5-5S15.8,4,13,4z"/>
	</g>
</g>
<g id="Grid" display="none">
	<g display="inline">
		<line fill="none" stroke="#00E5FF" stroke-width="0.1" stroke-miterlimit="10" x1="0" y1="-1848" x2="0" y2="1704"/>
	</g>
</g>
</svg>
