<svg>
<symbol id="spinner" viewBox="0 0 24 24"><path d="M12 4V1L8 5l4 4V6c3.31 0 6 2.69 6 6 0 1.01-.25 1.97-.7 2.8l1.46 1.46C19.54 15.03 20 13.57 20 12c0-4.42-3.58-8-8-8zm0 14c-3.31 0-6-2.69-6-6 0-1.01.25-1.97.7-2.8L5.24 7.74C4.46 8.97 4 10.43 4 12c0 4.42 3.58 8 8 8v3l4-4-4-4v3z"/><animateTransform attributeName="transform" type="rotate" from="360" to="0" dur="3s" repeatCount="indefinite"/></path></symbol>
<symbol id="angular" viewBox="-3.5 -3.5 165.908 175.75"><g transform="translate(-4.054,-4.375)"><polygon style="fill:#b3b3b3" points="153.4 137.8 166.5 29.46 83.24 0.875 0.554 29.98 13.62 138.3 83.33 176.6"/><polygon style="fill:#a6120d" points="158.2 35.72 83.05 10.09 83.05 167.5 146 132.6"/><polygon style="fill:#dd1b16" points="9.833 36.18 21.03 133.1 83.05 167.5 83.05 10.09"/><path style="fill:#f2f2f2" d="m103.7 93.87-20.69 9.675h-21.77l-10.25 25.7-19.07 0.3 51.13-113.7zm-2-4.87-18.51-36.73-15.22 36.1h15.08z"/><polygon style="fill:#b3b3b3" points="83.05 103.5 107.1 103.5 118.3 129.5 136.5 129.9 83.05 15.8 83.19 52.27 100.5 88.4 83.09 88.4"/></g></symbol>
</svg>