<?xml version="1.0" encoding="utf-8"?>
<!-- Generator: Adobe Illustrator 17.1.0, SVG Export Plug-In . SVG Version: 6.00 Build 0)  -->
<!DOCTYPE svg PUBLIC "-//W3C//DTD SVG 1.1//EN" "http://www.w3.org/Graphics/SVG/1.1/DTD/svg11.dtd">
<svg version="1.1" xmlns="http://www.w3.org/2000/svg" xmlns:xlink="http://www.w3.org/1999/xlink" x="0px" y="0px"
	 viewBox="0 0 24 24" enable-background="new 0 0 24 24" xml:space="preserve">
<g id="bg" display="none">
	<rect x="0" y="0" display="inline" fill="#FF5C56" width="24" height="24"/>
</g>
<g id="Layer_4">
</g>
<g id="svg">
	<path d="M18.4,3.8H5.6c-1,0-1.8,0.8-1.8,1.8v12.8c0,1,0.8,1.8,1.8,1.8h12.8c1,0,1.8-0.8,1.8-1.8V5.6C20.3,4.6,19.4,3.8,18.4,3.8z
		 M12,12.9c-0.5,0-0.9-0.4-0.9-0.9c0-0.5,0.4-0.9,0.9-0.9c0.5,0,0.9,0.4,0.9,0.9C12.9,12.5,12.5,12.9,12,12.9z"/>
</g>
<g id="png" display="none">
</g>
<g id="artboards">
</g>
<g id="Layer_6">
</g>
</svg>
